<svg width="779" height="779" viewBox="0 0 779 779" fill="none" xmlns="http://www.w3.org/2000/svg">
<path d="M105.187 494.281C96.7885 486.303 93.3247 476.741 94.9391 465.583C96.0929 457.608 101.995 454.733 109.17 458.385C116.47 462.101 119.891 468.908 122.7 476.085C125.425 483.046 126.569 490.437 128.755 497.781C129.881 493.437 130.938 489.075 132.152 484.756C133.454 480.127 134.839 475.517 136.325 470.944C136.865 469.282 136.966 466.389 139.552 467.168C142.506 468.058 141.054 470.661 140.453 472.631C137.941 480.869 135.389 489.095 133.757 497.569C133.594 498.417 133.135 499.248 133.806 500.399C137.645 496.311 141.134 492 145.959 489.077C154.825 483.706 163.349 484.334 171.133 491.189C176.74 496.127 176.65 502.401 170.855 507.057C166.084 510.89 160.474 512.168 154.503 512.172C147.323 512.177 140.384 513.279 133.793 516.277C131.016 517.54 129.517 519.253 129.407 522.614C129.222 528.277 128.402 533.919 128.662 539.919C129.901 538.002 131.085 536.048 132.389 534.176C136.892 527.71 141.916 521.785 150.345 520.67C156.656 519.835 162.124 522.204 166.526 526.583C170.022 530.061 169.47 535.266 165.594 539.574C161.541 544.079 156.392 546.634 150.519 547.829C144.766 549 139.324 550.967 134.15 553.771C129.101 556.508 126.217 559.971 127.655 566.276C128.701 570.866 127.458 575.802 129.109 580.919C131.808 574.459 134.324 568.391 138.643 563.313C144.496 556.432 152.713 554.434 160.931 557.973C166.92 560.552 168.778 565.315 166.025 571.286C163.285 577.229 158.485 581.048 152.695 583.719C145.168 587.192 137.901 590.963 132.648 597.732C131.543 599.155 130.832 600.484 131.17 602.202C132.413 608.523 133.258 614.929 135.357 622.139C136.457 618.096 137.228 614.92 138.192 611.803C139.806 606.579 141.721 601.494 145.604 597.418C147.569 595.355 149.817 593.689 152.545 592.923C155.571 592.073 158.488 591.151 161.407 589.855C165.239 588.152 168.49 590.712 170.998 593.578C174.795 597.918 176.229 603.339 177.441 608.812C177.843 610.627 178.178 612.456 178.733 615.226C181.535 608.63 184.104 603.198 179.555 597.116C176.838 593.484 174.614 589.463 172.079 585.667C168.247 579.93 166.688 573.638 169.459 566.936C171.32 562.436 175.018 561.443 178.963 564.348C184.185 568.194 185.703 573.972 186.562 579.959C187.06 583.419 187.224 586.927 187.572 590.797C191.741 584.808 194.561 579.13 190.402 572.163C188.269 568.588 186.666 564.686 184.966 560.868C182.308 554.898 182.078 548.807 184.908 542.857C187.043 538.367 191.25 537.675 194.858 541.121C198.757 544.845 200.104 549.714 200.286 554.908C200.445 559.452 200.398 564.009 199.499 569.174C202.458 566.772 203.934 564.173 205.064 561.27C208.018 553.688 211.665 546.46 216.392 539.814C218.096 537.418 220.152 535.364 222.773 533.937C226.957 531.658 230.885 532.008 234.012 534.958C236.9 537.684 237.782 542.335 235.982 546.191C233.891 550.67 230.029 553.327 225.855 555.59C220.396 558.549 214.939 561.513 209.431 564.378C206.177 566.071 204.771 569.123 202.492 572.655C206.62 571.846 209.667 570.213 213.139 570.271C219.884 570.383 225.15 573.787 227.606 580.032C229.332 584.421 227.158 587.845 222.384 588.263C218.763 588.58 215.315 587.919 212.033 586.391C208.447 584.721 204.698 583.633 200.788 583.036C197.695 582.564 195.345 583.217 194.075 586.452C193.115 588.897 191.825 591.213 190.312 594.352C193.736 592.394 196.373 590.729 199.387 589.855C205.974 587.944 212.259 590.301 215.857 596.106C218.454 600.295 217.051 604.169 212.331 605.685C209.639 606.55 206.9 606.84 204.092 606.135C199.644 605.018 195.126 604.606 190.531 604.708C187.288 604.78 185.323 606.105 184.56 609.339C183.927 612.018 183.047 614.639 181.983 618.295C184.626 615.153 187.051 613.368 189.674 611.885C195.666 608.497 201.934 609.421 206.712 614.299C210.244 617.906 209.731 622.089 205.493 624.74C202.707 626.482 199.704 627.122 196.442 627.102C192.406 627.077 188.373 626.761 184.36 627.907C180.549 628.995 178.301 630.842 178.956 635.153C179.161 636.505 178.988 637.915 178.988 639.579C181.052 639.314 181.69 637.617 182.755 636.555C188.03 631.296 194.718 630.42 200.337 634.328C204.722 637.378 205.125 641.406 201.388 645.181C198.59 648.008 195.086 649.384 191.214 649.836C188.031 650.207 185.041 651.21 182.064 652.296C177.954 653.795 175.47 656.378 176.017 661.115C176.277 663.366 176.332 665.64 176.54 668.804C178.366 665.792 179.63 663.409 181.172 661.221C185.544 655.015 191.505 653.273 197.671 656.251C201.905 658.296 203.086 661.979 200.613 665.999C198.414 669.574 195.18 671.952 191.247 673.408C187.3 674.87 183.617 676.804 180.343 679.493C178.086 681.346 177.119 683.503 177.736 686.503C178.779 691.579 179.605 696.7 180.437 701.817C180.626 702.981 181.243 704.665 179.595 705.111C177.562 705.662 177.454 703.639 177.217 702.434C176.142 696.976 175.1 691.503 174.327 685.996C173.96 683.38 172.809 681.571 170.74 680.072C167.344 677.612 163.839 675.361 160.07 673.502C158.237 672.598 157.382 673.113 156.608 674.901C155.369 677.761 155.301 680.341 156.794 683.227C160.465 690.321 164.189 697.379 168.185 704.297C168.842 705.434 170.693 706.835 168.548 708.117C166.71 709.216 165.205 708.437 164.19 706.54C160.545 699.725 156.596 693.057 153.282 686.086C151.564 682.471 149.105 680.536 145.439 679.705C138.752 678.189 131.998 677.283 125.123 677.221C113.763 677.119 103.966 670.05 100.224 659.391C96.9372 650.029 103.727 642.181 113.642 643.674C122.561 645.017 129.016 650.46 135.367 656.162C137.417 658.002 139.421 659.893 141.495 661.807C142.568 661.071 141.915 660.065 141.627 659.189C140.003 654.255 138.271 649.356 136.698 644.407C136.023 642.281 134.583 641.078 132.717 640.089C125.024 636.01 116.714 633.779 108.306 631.837C98.3877 629.547 89.239 619.47 88.0604 609.482C87.0802 601.175 93.3122 595.588 101.57 597.35C109.722 599.09 115.443 604.406 120.695 610.377C124.107 614.256 126.992 618.552 130.609 622.567C129.483 616.704 128.149 610.871 127.31 604.967C126.819 601.51 125.196 599.225 122.453 597.294C115.459 592.369 107.802 588.741 99.9768 585.41C90.6791 581.452 83.2153 569.682 83.3978 559.621C83.4453 557.001 84.9725 554.821 84.9874 552.238C84.9932 551.212 86.1548 551.525 86.802 551.253C93.5375 548.422 99.435 550.291 104.896 554.509C112.453 560.346 116.804 568.54 121.165 576.722C121.861 578.027 122.51 579.356 123.927 580.528C123.591 573.526 123.305 566.521 122.881 559.525C122.785 557.927 121.371 556.934 120.339 555.837C114.297 549.413 107.13 544.408 99.8063 539.6C90.0825 533.216 85.6093 524.032 85.7601 512.569C85.8611 504.889 91.325 501.05 98.6558 503.367C104.239 505.131 108.112 509.131 111.391 513.751C115.918 520.13 118.638 527.371 121.151 534.7C121.634 536.108 122.101 537.523 122.715 539.349C124.121 537.661 123.62 536.108 123.772 534.706C124.223 530.557 124.55 526.392 125.116 522.26C125.549 519.106 125.145 516.385 123.163 513.691C117.948 506.602 111.902 500.325 105.187 494.281ZM142.801 635.394C141.906 637.305 139.884 638.973 140.493 641.238C142.287 647.907 144.489 654.454 147.689 660.714C145.841 653.798 149.086 647.687 151.239 641.753C153.15 636.483 151.454 632.603 149.794 627.976C146.753 629.827 144.92 632.373 142.801 635.394ZM165.412 623.157C167.188 626.829 170.125 627.039 173.989 625.989C171.152 621.872 168.4 618.193 164.822 615.069C163.106 616.25 161.754 617.292 161.073 619.099C162.473 620.37 163.774 621.552 165.412 623.157ZM168.204 657.526C167.972 661.47 170.904 663.986 172.329 667.218C172.499 662.961 174.553 658.621 171.826 654.699C169.906 655.012 169.269 656.157 168.204 657.526Z" fill="#179446"/>
<path d="M626.907 549.178C628.818 551.19 630.522 553.025 632.738 555.412C632.319 549.674 630.624 544.951 629.42 540.132C629.052 538.66 628.499 537.234 628.112 535.766C627.795 534.564 627.215 533.017 628.964 532.594C630.644 532.187 631.006 533.845 631.332 535.002C633.119 541.328 634.819 547.679 636.72 554.646C637.99 550.065 639.049 546.018 640.243 542.012C641.268 538.573 642.964 535.457 645.366 532.771C648.46 529.311 652.948 527.967 656.283 529.437C659.231 530.736 661.654 536.207 660.99 540.31C660.105 545.782 658.288 550.714 654.102 554.76C650.53 558.211 649.156 563.246 646.354 567.307C645.657 568.317 645.445 569.726 643.503 570.027C641.928 566.105 646.634 564.779 647.12 561.752C641.205 564.151 638.75 569.112 640.227 575.076C640.913 577.847 639.136 580.817 640.891 583.948C642.977 579.402 644.069 574.703 646.75 570.717C648.759 567.729 650.965 564.974 654.178 563.258C657.253 561.615 660.536 561.188 663.61 563.082C666.644 564.951 667.423 568.206 667.128 571.424C666.479 578.482 663.645 584.33 656.891 587.656C652.217 589.958 647.84 592.747 643.667 595.874C641.698 597.349 640.67 599.074 640.68 601.64C640.695 605.293 640.348 608.948 640.762 612.955C641.685 611.431 642.647 609.929 643.523 608.379C645.665 604.59 648.306 601.21 651.653 598.415C653.956 596.492 656.613 595.399 659.627 595.204C665.123 594.849 668.893 598.574 668.562 604.047C668.084 611.968 663.124 618.042 655.341 620.229C650.818 621.5 646.427 623.091 642.222 625.226C639.537 626.591 637.891 628.363 637.552 631.568C637.173 635.153 636.211 638.676 635.344 643.017C638.983 638.925 641.625 635.021 645.353 632.145C648.31 629.864 651.457 628.124 655.343 627.991C662.89 627.734 666.965 632.982 664.708 640.167C662.675 646.64 657.162 650.891 650.441 651.497C645.276 651.962 640.129 652.651 635.151 654.271C632.941 654.99 631.462 656.172 630.734 658.507C629.567 662.251 628.124 665.909 626.513 670.399C630.21 667.263 633.192 664.325 636.816 662.216C640.312 660.182 643.933 659.004 648.02 659.284C655.828 659.82 659.555 666.421 655.918 673.367C652.717 679.481 646.479 682.67 639.016 681.643C635.092 681.104 631.187 681.116 627.262 681.101C623.419 681.086 620.567 682.314 618.794 686.155C616.997 690.048 614.55 693.646 612.313 697.328C611.517 698.637 610.444 700.165 608.707 698.865C606.996 697.584 608.698 696.399 609.321 695.308C611.707 691.127 614.161 686.985 616.577 682.822C617.358 681.478 617.836 680.072 617.509 678.468C616.985 675.897 615.962 674.791 613.049 675.921C607.876 677.928 603.997 680.468 603.977 686.918C603.969 689.867 603.426 693.132 601.659 695.824C599.543 695.108 600.09 693.727 600.286 692.55C600.702 690.055 600.947 687.49 601.732 685.108C603.199 680.654 601.29 677.81 597.796 675.514C595.891 674.262 593.998 672.989 592.056 671.798C590.312 670.729 588.637 669.572 587.409 667.928C585.859 665.853 584.236 663.415 586.026 661.012C587.85 658.565 590.829 658.386 593.664 659.323C598.302 660.856 600.241 664.993 602.473 668.924C604.081 661.968 603.268 660.258 597.045 657.347C593.955 655.901 590.489 655.312 587.669 653.252C585.068 651.351 582.934 649.155 584.44 645.615C585.485 643.159 590.084 641.979 593.236 643.135C595.827 644.085 597.441 645.395 600.797 649.273C601.819 643.038 601.068 641.897 595.127 640.52C591.931 639.78 588.662 639.229 585.577 638.159C581.448 636.725 579.486 633.598 580.5 630.86C581.557 628.004 586.544 625.937 589.936 627.073C591.241 627.51 592.47 628.22 593.664 628.925C594.847 629.624 595.941 630.473 597.134 631.297C597.839 626.313 596.439 624.313 591.748 623.921C588.226 623.627 584.637 623.955 581.15 623.48C576.586 622.858 574.102 620.447 574.353 617.648C574.649 614.352 579.206 611.189 583.248 611.439C586.37 611.633 588.789 613.655 591.654 614.747C590.068 607.877 587.997 606.632 580.667 608.369C577.823 609.043 575.046 609.941 572.075 609.552C569.835 609.258 567.821 608.469 566.897 606.235C566.003 604.071 567.113 602.269 568.428 600.668C570.894 597.664 574.023 596.374 577.882 597.445C579.705 597.951 581.486 598.611 583.598 599.302C582.835 596.839 581.541 595.004 579.555 593.644C575.896 591.136 572.248 588.61 568.553 586.156C565.548 584.16 562.914 581.81 561.276 578.554C559.89 575.801 560.035 573.058 562.344 570.865C564.719 568.611 567.437 568.932 570.046 570.538C572.704 572.174 574.554 574.598 576.128 577.23C578.802 581.7 581.028 586.392 582.906 591.248C583.637 593.139 584.372 595.021 586.281 596.936C586.281 593.68 586.25 590.86 586.289 588.041C586.333 584.917 587.07 581.978 589.244 579.63C591.853 576.813 595.265 577.22 597.044 580.622C599.224 584.79 599.445 589.096 597.351 593.411C596.023 596.145 594.8 598.937 593.344 601.601C591.083 605.736 592.004 609.343 595.078 613.162C595.477 610.368 595.789 607.929 596.182 605.502C596.657 602.57 597.638 599.836 599.879 597.761C603.074 594.802 606.823 595.66 608.291 599.751C609.853 604.103 609.113 608.258 606.638 612.081C605.47 613.885 604.164 615.621 602.753 617.242C598.903 621.664 598.011 626.309 601.464 631.327C602.491 627.413 603.155 623.256 605.545 619.728C608.384 615.538 611.008 615.928 615.586 617.482C626.871 621.312 629.389 630.641 631.821 640.881C633.535 636.43 633.989 632.119 634.808 627.906C635.134 626.23 633.916 625.045 632.976 623.885C629.739 619.896 625.76 616.741 621.283 614.296C616.938 611.922 613.462 608.728 610.896 604.53C607.551 599.059 609.758 594.513 616.145 593.713C621.186 593.082 625.279 594.758 628.617 598.637C631.854 602.398 633.68 606.959 636.186 611.828C637.204 607.379 637.423 603.512 637.225 599.626C637.101 597.18 635.126 595.924 633.429 594.672C629.325 591.645 624.706 589.565 619.975 587.699C615.507 585.936 611.646 583.339 609.418 578.894C607.25 574.568 608.585 571.196 613.197 569.565C618.509 567.685 623.389 568.409 627.697 572.291C630.597 574.904 632.912 578.011 635.188 581.441C637.781 576.018 635.976 569.485 631.507 567.02C627.01 564.539 622.095 563.332 617.082 562.456C612.701 561.69 608.839 559.884 605.939 556.45C602.449 552.318 603.338 547.989 608.064 545.4C612.65 542.888 617.27 542.725 621.808 545.415C623.539 546.442 625.076 547.797 626.907 549.178ZM623.516 646.156C622.961 645.729 622.239 644.739 621.705 645.722C620.651 647.667 619.509 649.535 620.39 652.125C621.976 656.782 623.789 661.434 623.578 667.05C629.464 654.294 629.464 653.801 623.516 646.156ZM612.911 637.433C613.267 635.398 612.423 633.774 610.447 634.909C608.358 636.109 606.209 637.854 605.699 640.65C609.183 642.077 610.64 639.361 612.911 637.433ZM607.036 668.007C609.682 663.447 609.682 663.447 606.144 661.742C605.379 664.353 605.868 666.87 606.367 669.41C606.535 669.082 606.703 668.755 607.036 668.007Z" fill="#179446"/>
<path d="M663.06 249.736C661.109 248.318 661.044 248.229 662.894 246.873C665.761 244.773 668.71 242.753 671.053 240.069C674.031 236.655 676.404 232.848 675.29 228.039C673.596 220.731 666.053 216.638 658.321 218.653C654.114 219.749 650.802 222.189 648.057 225.495C647.275 226.437 646.822 227.767 645.29 228.008C643.515 227.429 643.642 225.646 643.164 224.315C641.446 219.535 639.727 214.756 636.668 210.631C631.51 203.676 623.059 204.262 618.832 211.882C616.216 216.597 615.964 221.683 617.833 226.591C622.138 237.895 628.678 248.053 634.762 258.437C635.867 260.322 637.188 260.235 638.906 259.399C643.121 257.348 647.379 255.385 651.624 253.397C652.72 252.883 653.766 251.989 655.034 252.668C655.706 254.165 654.686 254.7 653.832 255.149C648.673 257.863 643.451 260.443 638.04 262.637C635.849 263.525 634.443 262.955 633.284 261.014C626.921 250.351 620.219 239.86 615.667 228.24C613.125 221.75 613.348 215.304 617.322 209.34C622.903 200.965 633.045 200.894 638.828 209.089C641.846 213.366 643.76 218.178 645.678 223.527C647.19 222.262 648.376 221.226 649.606 220.247C655.024 215.932 661.052 214.402 667.782 216.46C677.111 219.313 680.869 229.103 675.996 237.912C673.068 243.204 668.234 246.498 663.06 249.736Z" fill="#DB0211"/>
<path d="M130.211 298.388C136.113 298.047 140.871 300.346 145.457 303.154C150.429 306.198 154.726 310.134 159.447 314.234C161 310.529 162.189 307.108 163.816 303.91C170.113 291.529 186.568 287.11 197.228 294.826C200.827 297.432 202.34 299.952 202.105 302.955C201.013 303.419 200.45 302.703 199.962 301.939C191.021 287.952 172.472 293.325 166.211 305.148C164.414 308.541 163.154 312.094 162.721 315.923C162.593 317.054 162.61 318.384 161.442 318.918C159.934 319.607 159.152 318.194 158.324 317.342C154.069 312.964 149.488 308.983 144.346 305.682C142.858 304.727 141.286 303.884 139.693 303.113C134.752 300.722 129.865 299.728 125.144 303.71C119.943 308.097 117.853 313.695 118.958 320.313C120.083 327.057 123.419 332.624 128.787 336.955C129.861 337.822 131.573 338.455 131.047 340.365C130.278 341.143 129.543 340.895 128.899 340.454C118.064 333.038 113.853 320.034 117.035 310.739C119.209 304.391 123.367 300.198 130.211 298.388Z" fill="#DB0211"/>
<path d="M623.925 448.507C620.705 442.595 617.256 437.111 615.012 431.016C613.541 427.02 613.653 423.045 615.484 419.201C619.056 411.7 627.649 410.861 632.596 417.468C634.735 420.324 635.742 423.779 637.651 427.119C640.413 424.862 643.029 422.711 646.542 422.117C651.65 421.253 656.919 423.321 659.477 427.397C661.922 431.294 661.471 436.117 657.963 440.426C654.956 444.12 651.344 447.075 646.782 448.813C645.674 446.436 647.224 446.02 648.174 445.391C650.61 443.778 652.972 442.087 654.975 439.94C658.805 435.837 659.424 431.398 656.645 427.986C653.519 424.147 647.74 423.403 643.229 426.13C640.843 427.572 639.307 429.975 637.17 431.513C635.279 430.883 635.345 429.26 634.885 428.036C633.635 424.713 632.479 421.355 630.197 418.549C626.728 414.284 621.097 414.707 618.309 419.51C616.499 422.627 616.151 426.009 617.338 429.409C620.239 437.724 625.093 445.03 629.479 452.577C630.359 454.091 631.528 453.834 632.736 453.286C635.157 452.189 637.529 450.984 639.949 449.883C641.035 449.388 642.132 448.393 643.388 449.544C643.768 450.912 642.792 451.4 641.888 451.834C638.806 453.31 635.679 454.692 632.61 456.194C630.372 457.289 628.796 456.842 627.594 454.605C626.516 452.6 625.243 450.7 623.925 448.507Z" fill="#DB0211"/>
<path d="M445.361 138.861C450.601 136.547 455.438 134.049 460.067 131.152C462.44 129.667 464.673 128.016 466.587 125.952C470.238 122.017 470.976 118.067 468.673 114.643C466.291 111.101 461.262 109.686 456.737 111.315C454.414 112.151 452.546 113.639 450.928 115.478C450.206 116.298 449.774 117.507 448.36 117.527C446.829 116.893 446.805 115.343 446.346 114.088C445.171 110.871 444.074 107.623 441.9 104.894C438.156 100.194 432.481 100.823 429.572 106.148C428.765 107.626 429.116 109.769 427.239 110.593C426.374 110.453 426.023 109.944 426.003 109.262C425.89 105.53 429.079 101.223 433.031 99.7236C437.135 98.1665 440.673 99.1166 443.546 102.63C446.04 105.681 447.309 109.428 449.162 113.348C452.889 109.721 456.922 107.693 461.962 108.115C470.846 108.86 475.266 117.352 470.679 125C468.731 128.248 465.833 130.503 462.766 132.547C457.157 136.283 451.07 139.124 444.967 141.943C442.188 143.227 440.285 142.903 438.734 140.015C435.859 134.658 432.71 129.448 429.745 124.138C429.111 123.001 428.035 121.791 429.228 120.314C431.211 119.963 431.386 121.646 432.025 122.783C434.758 127.642 437.534 132.478 440.191 137.379C441.386 139.583 442.881 140.264 445.361 138.861Z" fill="#DB0211"/>
<path d="M139.092 344.585C148.831 351.485 158.85 357.426 168.796 363.486C170.635 364.606 171.924 364.52 173.328 362.75C182.94 350.625 192.086 338.215 198.641 324.079C200.553 319.955 201.158 315.457 202.529 310.916C205.09 311.855 204.472 313.571 204.203 315.06C203.113 321.112 200.631 326.654 197.75 332.022C191.256 344.123 183.052 355.042 174.457 365.701C172.747 367.82 171.264 368.042 168.988 366.7C158.08 360.27 147.296 353.646 136.845 346.491C135.671 345.687 134.18 344.951 134.395 343.052C136.491 341.993 137.505 343.748 139.092 344.585Z" fill="#DB0211"/>
<path d="M533.55 657.966C535.794 666.812 538.784 675.127 541.776 683.435C543.013 686.867 544.629 690.067 547.165 693.007C554.525 701.541 551.302 715.9 543.122 719.419C541.292 720.206 540.681 721.775 539.983 723.373C535.209 734.304 533.065 735.381 520.697 733.179C519.943 733.044 519.108 733.07 518.446 732.758C510.831 729.18 503.032 730.723 495.249 731.948C492.576 732.368 489.883 732.532 487.217 732.239C483.428 731.823 481.907 729.338 483.322 726.02C484.769 722.628 486.331 719.279 487.904 715.938C488.862 713.902 489.553 711.847 489.326 709.572C489.099 707.295 489.461 705.196 491.385 703.551C491.827 703.174 492.34 702.501 492.284 702.021C491.736 697.292 495.156 694.12 497.073 690.328C501.399 681.77 503.06 672.478 504.686 663.209C505.298 659.724 505.613 656.193 506.084 652.684C506.598 648.849 506.022 645.238 504.47 641.608C496.007 621.825 486.771 602.343 479.227 582.2C477.142 576.63 476.278 570.859 475.158 565.109C472.725 552.627 468.108 540.628 466.083 528.059C465.016 521.435 464.034 514.791 463.307 508.126C462.984 505.165 461.758 503.688 458.638 503.462C456.48 503.306 454.349 502.827 452.199 502.545C448.696 502.085 445.584 501.535 444.329 497.444C443.566 494.954 440.347 495.103 438.01 494.785C429.618 493.645 429.423 493.331 433.248 486.055C441.338 470.669 449.981 455.506 454.965 438.827C457.997 428.684 459.478 418.358 459.053 407.748C458.68 398.42 460.847 389.318 462.732 380.221C462.972 379.063 463.558 377.919 462.867 376.736C461.996 376.652 461.723 377.276 461.449 377.786C452.738 393.994 441.355 408.671 432.041 424.536C431.108 426.124 430.655 427.481 431.149 429.335C432.593 434.75 433.41 440.274 435.109 445.68C436.858 451.244 435.684 456.66 430.633 460.938C428.625 462.639 426.336 464.45 425.592 467.235C425.032 469.332 423.351 469.484 421.655 468.912C419.728 468.261 417.638 467.945 415.853 467.172C412.921 465.9 410.503 463.699 407.68 462.105C405.282 460.751 407.388 457.846 406.906 455.131C404.748 456.912 404.501 459.133 403.225 460.695C402.071 462.107 400.97 464.103 398.673 463.206C396.367 462.305 397.593 460.353 397.772 458.716C398.119 455.532 399.275 452.24 395.169 450.024C393.219 448.972 393.97 446.972 395.485 445.676C396.62 444.705 397.95 443.933 399.232 443.129C400.544 442.306 401.386 441.415 400.426 439.829C399.217 437.83 399.98 436.074 401.288 434.414C403.674 431.387 405.974 428.287 409.308 426.092C411.146 424.882 411.83 423.323 411.7 421.093C410.986 408.864 406.949 397.722 400.388 387.258C394.735 378.243 389.181 369.123 386.925 358.651C385.819 353.519 385.025 348.326 384.13 343.154C383.965 342.203 384.136 341.168 383.075 340.568C382.465 340.477 381.978 340.816 381.896 341.272C380.829 347.156 379.49 353.004 379.196 358.994C379.102 360.897 379.463 362.683 381.175 363.911C386.612 367.813 387.381 373.509 387.44 379.33C387.469 382.23 386.785 385.141 386.375 388.04C385.907 391.342 385.741 394.627 387.065 397.794C388.568 401.39 388.51 405.206 388.899 408.958C388.972 409.666 389.013 410.662 388.588 411.087C384.097 415.576 386.184 421.042 386.427 426.01C387.37 445.299 387.358 464.555 386.379 483.848C385.785 495.571 383.88 507.144 383.009 518.825C382.598 524.339 380.282 529.481 379.196 534.879C377.2 544.8 377.368 554.82 377.632 564.824C377.893 574.701 377.543 584.569 378.246 594.47C378.969 604.667 377.43 614.906 375.801 625.054C374.46 633.406 374.304 641.845 374.812 650.262C375.022 653.74 377.369 656.598 379.154 659.556C381.094 662.773 382.561 666.077 382.352 669.933C382.181 673.11 381.343 676.09 379.039 678.315C376.957 680.325 376.69 682.562 376.987 685.032C378.389 696.699 382.254 707.154 392.803 714.356C398.812 718.458 401.946 724.032 402.027 731.176C402.058 733.908 400.284 734.679 398.07 735.302C392.44 736.886 386.877 735.156 381.294 734.966C368.1 734.517 357.256 727.914 346.213 722.061C341.268 719.441 340.252 714.683 340.681 709.651C340.889 707.224 341.443 704.826 341.728 702.403C342.295 697.582 341.643 693.252 337.276 689.877C333.546 686.994 333.588 683.198 337.179 679.734C338.99 677.988 339.727 676.74 337.672 674.576C335.458 672.245 336.489 669.682 338.53 667.698C340.161 666.111 340.429 664.578 340.003 662.427C338.224 653.438 339.723 644.406 340.023 635.399C340.639 616.97 341.717 598.559 340.748 580.103C340.152 568.762 339.574 557.438 338.158 546.151C336.969 536.67 334.05 527.543 332.368 518.165C331.153 511.392 331.118 504.551 330.533 497.747C329.938 490.815 329.847 483.844 329.55 476.89C329.482 475.309 329.423 473.743 328.289 472.525C326.505 472.608 326.05 473.87 325.424 474.875C322.005 480.36 318.944 486.064 317.747 492.366C314.767 508.058 309.166 523.017 303.8 538.012C298.121 553.883 293.271 569.853 291.318 586.597C289.655 600.859 285.347 614.547 280.306 628.034C278.29 633.429 276.428 638.81 277.631 644.802C278.296 648.114 276.662 651.207 274.601 654.012C270.569 659.501 270.651 662.879 274.736 668.393C275.844 669.889 277.101 671.284 278.191 672.791C280.346 675.77 279.547 677.792 275.859 678.698C274.778 678.963 273.565 678.859 272.927 679.843C272.964 681.041 273.873 681.42 274.554 681.908C277.369 683.921 278.295 686.89 276.303 689.302C270.325 696.539 271.181 704.707 271.655 712.984C271.84 716.221 272.442 719.595 270.649 722.696C270.15 723.559 270.664 724.376 270.99 725.149C272.564 728.884 270.906 731.529 267.857 733.689C265.659 735.246 263.121 736.122 260.486 736.671C252.591 738.318 244.623 739.313 236.512 738.911C227.538 738.465 223.694 733.714 225.392 725.221C226.255 720.9 228.127 716.939 231.255 713.85C237.766 707.42 236.628 699.485 236.717 691.734C236.731 690.488 235.729 689.844 234.873 689.095C230.565 685.322 230.41 682.135 234.482 678.232C235.492 677.264 235.951 676.449 235.662 675.054C234.319 668.568 234.983 662.168 236.974 655.89C239.514 647.883 240.766 639.742 240.592 631.354C240.412 622.653 241.369 614.073 244.139 605.7C246.195 599.484 246.917 593.049 246.564 586.524C246.324 582.067 247.046 577.758 248.761 573.61C251.266 567.55 251.386 560.83 253.756 554.876C256.97 546.802 255.609 538.552 256.727 530.446C259.168 512.742 258.107 494.829 260.675 477.159C260.957 475.22 260.192 474.379 258.746 473.294C252.003 468.233 247.882 461.711 244.536 454.005C239.983 443.523 242.642 433.369 242.988 423.032C243.02 422.066 243.274 420.985 242.924 420.149C239.558 412.135 240.086 403.583 239.065 395.253C237.847 385.321 236.869 375.362 235.657 365.429C233.843 350.557 233.944 335.743 236.267 320.907C237.625 312.235 238.821 303.53 239.15 294.729C239.285 291.104 238.314 288.767 234.362 288.228C230.415 287.689 229.899 285.524 230.7 282.231C233.1 272.365 237.363 262.995 239.048 252.936C240.983 241.381 243.217 229.885 246.122 218.497C248.162 210.502 252.993 205.129 260.987 202.635C270.972 199.52 280.71 195.871 290.335 191.877C293.192 190.691 296.252 190.297 299.579 190.283C304.225 190.264 309.035 189.06 311.692 184.501C312.376 183.328 313.173 182.216 313.891 181.06C317.766 174.82 319.446 168.612 316.359 161.276C314.727 157.397 314.5 152.759 313.772 148.469C313.017 144.016 313.741 139.576 312.645 135.159C311.487 130.49 313.796 126.157 316.383 122.335C320.153 116.762 326.467 114.133 332.227 110.93C333.348 110.306 334.588 109.95 335.897 110.006C347.094 110.485 358.291 111.272 368.568 115.978C371.768 117.444 376.295 119.875 375.292 123.626C373.344 130.914 377.235 136.455 379.469 142.573C380.319 144.902 380.442 147.299 378.778 149.207C375.623 152.826 376.836 155.943 379.475 159.073C380.197 159.93 380.905 160.797 381.635 161.647C383.611 163.946 383.687 166.104 380.955 167.873C379.784 168.631 378.935 169.472 379.266 170.847C380.339 175.313 378.489 179.036 376.278 182.764C375.482 184.106 374.935 185.741 374.84 187.273C374.595 191.236 372.163 192.541 368.488 192.564C365.417 192.584 362.345 192.478 359.274 192.513C356.638 192.544 354.39 193.351 353.808 196.131C353.226 198.907 354.9 200.49 357.397 201.447C361.594 203.056 365.375 205.313 368.847 208.06C373.986 212.125 379.534 215.508 385.476 218.488C395.986 223.759 400.941 232.854 402.093 243.774C403.979 261.649 407.685 279.197 411.735 296.699C412.48 299.915 412.957 303.211 414.006 306.333C414.997 309.282 413.595 310.276 411.053 311.071C405.437 312.827 405.039 313.535 406.427 319.156C407.9 325.12 410.231 330.811 412.869 336.377C418.034 347.274 419.326 358.859 419.992 370.622C420.543 380.362 422.192 389.991 424.273 399.541C424.467 400.432 424.324 401.567 425.546 402.11C427.339 401.716 427.598 400.101 428.152 398.818C430.056 394.407 431.447 389.837 432.475 385.169C434.167 377.484 436.242 369.78 440.505 363.107C452.018 345.086 454.435 325.41 453.564 304.929C453.018 292.103 453.213 279.292 455.946 266.637C456.093 265.956 456.26 264.9 455.882 264.555C452.606 261.568 454.842 258.856 456.436 256.372C462.724 246.574 472.409 244.683 483.469 246.042C489.738 246.813 495.431 245.578 499.944 240.991C502.796 238.093 504.147 234.675 504.113 230.675C504.09 227.915 502.966 226.614 499.954 226.817C497.277 226.998 494.569 227.134 491.901 226.95C487.458 226.644 485.818 224.971 485.404 220.855C485.38 220.611 485.43 220.342 485.337 220.127C483.493 215.854 480.913 211.801 481.17 206.901C481.188 206.54 480.258 206.129 479.762 205.749C477.56 204.06 477.806 202.204 479.463 200.363C480.376 199.348 481.437 198.448 482.482 197.551C484.011 196.24 485.108 194.955 483.797 192.83C482.552 190.812 483.606 188.467 483.711 186.428C484.144 178.038 481.262 168.268 492.253 163.398C494.337 162.475 496.376 161.22 498.576 160.82C506.822 159.32 514.436 155.758 522.993 155.018C532.573 154.19 543.098 158.375 548.563 166.01C555.214 175.3 559.166 185.118 558.009 196.58C557.52 201.428 559.036 206.065 561.592 210.253C565.85 217.231 567.42 224.8 567.299 232.737C567.257 235.486 568.278 237.235 570.276 239.337C576.313 245.691 582.681 252.154 581.291 261.91C581.102 263.238 581.787 264.229 582.545 265.252C585.607 269.38 586.819 273.935 584.995 278.779C582.357 285.785 581.966 293.12 581.365 300.383C579.972 317.207 579.965 334.06 581.298 350.898C581.51 353.57 582.083 356.169 583.294 358.675C587.06 366.465 587.906 374.887 588.551 383.283C589.29 392.914 591.136 402.376 592.722 411.884C594.414 422.022 595.117 432.267 595.564 442.495C595.926 450.766 598.764 458.529 599.896 466.621C600.865 473.553 594.916 484.686 588.224 487.551C585.236 488.83 582.641 490.185 581.172 493.273C579.976 495.786 577.389 497.171 574.79 498.326C569.559 500.65 564.125 502.472 558.628 504.097C556.399 504.756 555.415 505.933 554.742 508.046C548.04 529.108 545.945 550.572 547.911 572.481C549.005 584.683 546.305 596.533 543.51 608.345C540.521 620.976 537.161 633.494 532.144 645.564C530.405 649.748 532.774 653.656 533.55 657.966ZM265.183 396.408C266.871 391.652 266.795 386.945 265.63 382.013C263.238 371.89 260.754 361.672 265.754 351.524C266.063 350.896 266 350.086 266.046 349.356C266.713 338.989 265.886 328.627 265.892 318.261C265.892 317.712 266.086 317.004 264.999 316.581C261.782 322.984 260.272 329.603 261.325 336.719C262.493 344.615 262.516 352.504 261.309 360.425C258.897 376.26 257.321 392.166 257.909 408.194C258.134 414.328 260.551 419.573 265.595 423.618C265.501 414.656 266.57 405.787 265.183 396.408ZM517.554 715.796C521.397 711.366 520.295 705.312 523.535 700.411C528.362 693.108 522.634 686.486 520.311 679.04C518.066 684.818 516.12 689.836 514.166 694.851C513.711 696.019 513.123 697.534 513.898 698.375C516.915 701.643 514.941 704.996 514.623 708.4C514.321 711.626 512.68 714.894 514.247 718.232C515.738 717.906 516.38 716.942 517.554 715.796ZM553.052 330.309C552.653 332.097 552.479 333.966 551.816 335.66C548.331 344.567 552.693 351.298 559.039 358.705C558.486 346.16 557.112 334.719 555.858 322.257C554.029 325.221 553.963 327.579 553.052 330.309ZM509.273 506.925C507.619 524.854 508.953 542.794 509.225 560.724C509.272 563.842 509.762 567.357 513.188 570.524C513.077 565.563 513.52 561.56 512.644 557.572C510.103 546.003 509.879 534.312 510.707 522.572C511.051 517.699 510.645 512.802 511.325 507.932C511.572 506.169 511.097 505.951 509.273 506.925ZM577.36 425.833C579.074 431.699 580.787 437.565 582.5 443.431C582.86 443.337 583.22 443.243 583.58 443.15C584.84 430.754 577.996 420.338 573.497 409.337C574.743 414.637 575.99 419.936 577.36 425.833ZM260.336 447.288C260.871 451.375 257.357 456.078 262.327 459.847C266.285 454.434 262.04 449.923 261.64 444.139C260.959 445.677 260.714 446.228 260.336 447.288ZM588.956 474.287C589.21 472.459 589.681 470.555 587.068 469.321C586.282 471.996 586.685 474.298 586.811 477.396C587.765 476.077 588.251 475.405 588.956 474.287Z" fill="#023047"/>
</svg>
