<svg width="111" height="110" viewBox="0 0 111 110" fill="none" xmlns="http://www.w3.org/2000/svg">
<rect width="111" height="110" rx="55" fill="#F7DAD8"/>
<path d="M55.5 52.4673C56.1713 52.4673 56.8152 52.734 57.2899 53.2087C57.7646 53.6834 58.0312 54.3272 58.0312 54.9985V63.436C58.0312 64.1074 57.7646 64.7512 57.2899 65.2259C56.8152 65.7006 56.1713 65.9673 55.5 65.9673C54.8287 65.9673 54.1848 65.7006 53.7101 65.2259C53.2354 64.7512 52.9688 64.1074 52.9688 63.436V54.9985C52.9688 54.3272 53.2354 53.6834 53.7101 53.2087C54.1848 52.734 54.8287 52.4673 55.5 52.4673Z" fill="#DE6964"/>
<path fill-rule="evenodd" clip-rule="evenodd" d="M36.1444 36.409C35.4694 36.6183 34.8079 36.868 34.1632 37.1515C27.3525 40.1688 22.5938 47.1922 22.5938 55.336C22.5938 63.3044 26.0261 69.3659 30.4811 74.2225C34.0451 78.1072 38.4056 81.3573 42.2362 84.2125C43.1002 84.8572 43.9406 85.4849 44.7338 86.0924C46.2896 87.277 47.9738 88.5562 49.6815 89.5214C51.3926 90.49 53.3603 91.2832 55.5 91.2832C57.6398 91.2832 59.6074 90.49 61.3185 89.5214C63.0262 88.5528 64.7104 87.277 66.2662 86.0924C67.0594 85.4849 67.8997 84.8572 68.7638 84.2125C72.5944 81.3573 76.9549 78.1072 80.5189 74.2225C84.9739 69.3659 88.4062 63.3044 88.4062 55.336C88.4062 47.1922 83.6475 40.1688 76.8368 37.1583C76.1912 36.8718 75.5298 36.6228 74.8556 36.4124C74.5384 31.0934 72.7226 26.7498 69.4995 23.665C65.9558 20.2732 61.0417 18.7173 55.5 18.7173C49.9583 18.7173 45.0443 20.2732 41.5005 23.6617C38.2774 26.7464 36.4616 31.0867 36.1444 36.409ZM41.2913 35.5923C45.9521 35.5315 50.8999 37.2528 55.5 41.188C60.1001 37.2528 65.0479 35.5315 69.7087 35.5923C69.2869 31.8562 67.9234 29.1629 65.9996 27.3235C63.6473 25.069 60.1271 23.7798 55.5 23.7798C50.8762 23.7798 47.3528 25.069 45.0004 27.3235C43.0766 29.1629 41.7131 31.8562 41.2913 35.5923ZM27.6562 55.336C27.6562 49.1767 31.2506 43.9792 36.2119 41.782C41.0347 39.649 47.5249 40.2093 53.7045 46.4227C53.9398 46.6594 54.2195 46.8473 54.5276 46.9755C54.8358 47.1037 55.1662 47.1697 55.5 47.1697C55.8338 47.1697 56.1642 47.1037 56.4724 46.9755C56.7805 46.8473 57.0602 46.6594 57.2955 46.4227C63.4717 40.2093 69.9653 39.649 74.7881 41.782C79.7494 43.9758 83.3438 49.1733 83.3438 55.3327C83.3438 61.6675 80.6708 66.5647 76.7895 70.7969C73.5833 74.2934 69.702 77.1892 65.8916 80.0343C64.9838 80.7093 64.0826 81.3843 63.1916 82.0627C61.5919 83.2844 60.1811 84.3442 58.8244 85.1103C57.4676 85.8798 56.3944 86.2173 55.5 86.2173C54.6022 86.2173 53.5324 85.8798 52.1756 85.1103C50.8189 84.3442 49.4081 83.2844 47.8084 82.0627C46.912 81.3817 46.012 80.7056 45.1084 80.0343C41.3014 77.1925 37.4201 74.2968 34.2105 70.7969C30.3292 66.5647 27.6562 61.6675 27.6562 55.3327V55.336Z" fill="#DE6964"/>
</svg>
