<svg width="56" height="73" viewBox="0 0 56 73" fill="none" xmlns="http://www.w3.org/2000/svg">
<g clip-path="url(#clip0_363_98)">
<path d="M27.1961 0.132446C27.4697 0.132446 27.7433 0.132446 28.1008 0.176435C28.2941 0.237966 28.4057 0.246882 28.5125 0.274287C34.1672 1.72567 39.8215 3.17818 45.4756 4.63161C47.6825 5.1989 49.8887 5.76861 52.0426 6.32365C52.1148 7.88815 52.1969 9.3346 52.2445 10.7822C52.3051 12.6287 52.3332 14.4762 52.3842 16.3231C52.4206 17.6405 52.5009 18.9574 52.5096 20.2748C52.5253 22.6584 52.5023 25.0422 52.4368 27.425C50.6837 27.38 48.989 27.3411 47.2948 27.288C46.8944 27.2755 46.6705 27.3917 46.6362 27.8271C46.5081 29.4529 46.3533 31.0765 46.2197 32.7018C45.9974 35.4045 45.6822 38.0881 44.8712 40.6967C43.3932 45.4509 40.9805 49.5855 36.8822 52.6142C36.459 52.927 35.9734 53.1575 35.511 53.3682C35.7915 51.5289 36.1166 49.7523 36.3508 47.9642C36.5114 46.7377 37.1309 45.9589 38.2063 45.3397C41.1222 43.6609 42.9087 41.1459 43.5014 37.8434C43.6701 36.9035 43.8685 35.9467 43.3813 34.8272C42.7085 35.5239 42.1374 36.1631 41.515 36.749C40.5303 37.6758 39.5406 38.602 38.4934 39.4571C38.0297 39.8357 37.4203 40.0398 36.877 40.3231C36.8426 40.2681 36.8083 40.213 36.774 40.158C37.2912 38.9451 37.8084 37.7323 38.3256 36.5194C38.2902 36.4665 38.2547 36.4136 38.2192 36.3607C37.9793 36.4565 37.6875 36.4968 37.5101 36.6593C37.1033 37.0319 36.6244 37.4055 36.4007 37.8823C35.3437 40.135 34.1013 42.349 33.4208 44.7162C32.5667 47.6868 32.1857 50.7914 31.6245 53.8425C31.5252 54.3825 31.5429 54.9436 31.4666 55.5245C31.1619 55.6668 30.8886 55.7634 30.6338 55.8949C28.593 56.9479 26.6514 56.5863 24.7676 55.4491C24.7593 55.1745 24.7576 54.9533 24.719 54.7385C24.4307 53.1367 24.076 51.5442 23.8537 49.9337C23.3347 46.1738 22.3399 42.5652 20.5115 39.2135C20.0602 38.3862 19.5199 37.599 18.9469 36.8483C18.744 36.5825 18.3219 36.4802 17.9999 36.3033C17.9567 36.3615 17.9135 36.4197 17.8703 36.478C18.3469 37.6532 18.8236 38.8284 19.2839 40.0188C19.2675 40.034 19.2354 40.0652 19.1921 40.0499C18.3751 39.554 17.5699 39.1159 16.8369 38.581C16.105 38.0468 15.4165 37.4452 14.7624 36.8186C14.1297 36.2125 13.5651 35.5369 12.9707 34.8919C12.9068 34.9351 12.8429 34.9783 12.7791 35.0215C12.9398 36.2825 13.1829 37.5399 13.2404 38.8056C13.3126 40.3946 13.902 41.7496 15.006 42.8255C16.0291 43.8225 17.1846 44.6962 18.3397 45.5474C18.9321 45.984 19.5182 46.4001 19.6469 47.1403C20.0125 49.2417 20.3268 51.3519 20.6134 53.4414C18.2768 52.1445 16.4199 50.3752 14.8569 48.319C11.5881 44.0188 10.2599 39.0469 9.9274 33.7708C9.80554 31.8369 9.81652 29.8942 9.79878 27.9552C9.79414 27.4482 9.60216 27.3292 9.12016 27.3425C7.29361 27.393 5.46597 27.4047 3.63059 27.373C3.62062 26.6905 3.60173 26.0655 3.61988 25.4415C3.70235 22.6079 3.80647 19.7748 3.88092 16.9409C3.94277 14.5863 3.97183 12.2309 4.01997 9.87588C4.04363 8.71827 4.07758 7.56086 4.10593 6.44104C6.70875 5.7316 9.18549 5.05459 11.6634 4.38161C15.0949 3.44962 18.5283 2.52451 21.9588 1.5888C23.707 1.11197 25.4505 0.618433 27.1961 0.132446ZM38.169 23.8985C38.5022 23.5735 38.8353 23.2484 39.1685 22.9234C39.1296 22.8478 39.0907 22.7721 39.0518 22.6965C36.6377 22.5635 34.1745 21.9602 31.8446 23.7446C32.2482 21.3841 33.5416 19.5951 34.2685 17.5036C33.5436 17.6668 32.8577 17.8789 32.2269 18.1974C31.4164 18.6066 30.6408 19.0864 29.8687 19.5651C29.4745 19.8095 29.0862 20.083 28.7559 20.4043C28.0254 21.115 27.2965 21.8338 26.6417 22.6109C26.3283 22.9826 26.068 23.4762 25.9925 23.9473C25.8836 24.6271 25.9647 25.3367 25.9647 26.0478C24.3746 25.93 23.1179 25.3521 22.294 24.0094C21.7968 23.1993 21.2891 22.3954 20.7805 21.5922C20.6829 21.438 20.5589 21.3001 20.4435 21.15C18.9861 22.4782 19.2138 23.8615 19.8834 25.0195C20.2035 25.573 20.5866 26.0908 20.938 26.6269C21.2749 27.1409 21.5602 27.7149 22.3517 27.5982C22.4511 27.5835 22.5834 27.7094 22.6837 27.7904C23.6983 28.6099 24.7092 29.434 25.7217 30.2561C26.8834 31.1994 28.1705 31.8763 29.6364 31.0989C30.7947 30.4848 31.7186 30.5292 32.6131 31.4584C32.637 31.4833 32.6965 31.4746 32.6843 31.4726C33.7778 30.1727 33.1577 29.2819 31.8489 28.5377C32.5964 28.333 33.2223 28.1504 33.8575 28.11C34.6524 28.0595 35.1525 27.674 35.6071 27.0675C36.4022 26.0068 37.2654 24.996 38.169 23.8985ZM32.7027 31.8393C32.5697 32.0908 32.4083 32.3318 32.3095 32.5958C32.0944 33.1701 31.9787 33.7908 31.6961 34.3275C31.405 34.8804 31.0256 34.8276 30.751 34.2742C30.5842 33.938 30.4382 33.5912 30.2607 33.2608C30.0863 32.9359 29.9578 32.4646 29.6796 32.3399C28.9125 31.9959 28.0777 31.7997 27.2697 31.545C27.1978 31.6115 27.1259 31.6781 27.0541 31.7446C27.4401 32.6858 27.6803 33.7266 28.2499 34.5424C28.9287 35.5145 30.1719 35.0005 31.2566 35.1507C30.8965 35.724 30.585 36.22 30.2408 36.768C29.6393 36.3908 29.1141 36.0226 28.5506 35.7257C28.3001 35.5938 27.9376 35.4956 27.6862 35.5732C27.0206 35.7787 26.388 36.0884 25.536 36.4423C26.1131 36.95 26.6211 37.3768 27.1056 37.8284C27.7088 38.3908 28.2564 38.4717 28.9759 38.0529C29.2944 37.8675 29.6005 37.6611 29.9493 37.4408C29.951 38.7552 29.4278 39.5037 28.327 39.8437C28.1995 39.8831 28.0729 39.9437 27.9428 39.9531C26.5156 40.057 26.2578 41.3793 25.4978 42.2113C26.6965 42.04 27.998 42.7823 29.0944 41.6949C28.431 43.404 28.9759 44.918 29.7961 46.5151C30.1514 45.1457 30.4988 43.8997 30.7817 42.6395C30.8393 42.3825 30.6816 42.0618 30.5752 41.7888C30.3773 41.2811 30.0591 40.8051 29.9448 40.2829C29.7548 39.4148 30.1043 38.4569 30.6728 38.0678C30.7271 39.974 30.8833 41.8235 32.5274 43.1204C32.6224 42.7413 32.6881 42.3244 32.8317 41.9356C33.2946 40.6815 33.0299 39.7155 31.9227 38.8652C30.9668 38.1312 30.9846 36.3984 31.8182 35.5136C31.8785 35.4495 31.9975 35.4394 32.0984 35.4007C32.2145 36.3423 32.164 37.2985 32.4812 38.1151C32.7888 38.9073 33.474 39.5561 33.9934 40.2679C34.0472 40.2327 34.101 40.1974 34.1548 40.1622C33.9797 38.8337 33.8265 37.5018 33.6115 36.1796C33.567 35.9064 33.3509 35.5768 33.1144 35.4321C32.0386 34.7738 31.9641 34.5319 32.4455 33.3504C32.6276 32.9036 32.6566 32.3958 32.7027 31.8393ZM31.6292 8.13637C31.6012 7.19155 31.6012 7.18929 30.6134 7.17663C30.156 7.17076 29.6984 7.17563 29.2331 7.17563C29.1787 6.08903 29.1306 5.12829 29.0811 4.13906C28.5929 4.13906 28.177 4.13906 27.7634 4.13906C27.7294 4.22145 27.6845 4.28107 27.6827 4.34195C27.6656 4.91472 27.6505 5.48766 27.6449 6.06065C27.6332 7.26916 27.6357 7.27051 26.4528 7.28121C25.9968 7.28534 25.5407 7.28189 25.0916 7.28189C25.0916 7.77267 25.0916 8.13978 25.0916 8.60959C25.8933 8.60959 26.6574 8.60959 27.5056 8.60959C27.5056 10.9961 27.5056 13.2803 27.5056 15.6322C27.8326 15.6322 28.0724 15.6327 28.3123 15.6321C29.1798 15.63 29.1901 15.6299 29.1943 14.7618C29.2033 12.9531 29.1988 11.1444 29.2038 9.33573C29.2044 9.10281 29.2286 8.86996 29.2443 8.59432C29.9207 8.59432 30.523 8.61957 31.1207 8.57886C31.2989 8.56673 31.4641 8.3697 31.6292 8.13637Z" fill="#C1A563"/>
<path d="M35.5167 53.4261C35.9733 53.1575 36.4589 52.927 36.8821 52.6142C40.9804 49.5855 43.3931 45.4509 44.8711 40.6967C45.6821 38.0881 45.9973 35.4045 46.2196 32.7018C46.3532 31.0765 46.508 29.4529 46.6361 27.8271C46.6704 27.3917 46.8943 27.2755 47.2947 27.288C48.9889 27.3411 50.6836 27.38 52.4463 27.4867C52.4262 29.6493 52.3655 31.7509 52.2399 33.8487C52.1543 35.2787 52.068 36.7187 51.8232 38.1272C51.3457 40.8744 50.7203 43.5908 49.7064 46.2079C48.4285 49.5063 46.6195 52.4835 44.175 55.0519C43.2291 56.0457 42.1741 56.9761 41.037 57.7444C39.4849 58.7931 37.8452 59.7337 36.1706 60.5806C34.7843 61.2818 33.2931 61.7801 31.871 62.3591C31.9881 62.408 32.1224 62.4843 32.2671 62.5216C37.1924 63.7908 42.1111 65.0866 47.0511 66.2974C48.0651 66.546 49.1504 66.8477 50.2565 66.4272C49.5655 65.51 48.5485 65.321 47.3544 65.1006C48.3908 64.677 49.1889 64.2206 50.0295 65.0458C50.2801 65.2918 50.6565 65.4194 50.9865 65.5783C52.6187 66.3639 54.3755 66.3773 56.1338 66.3756C56.1338 66.3756 56.1338 66.4419 56.09 66.4861C55.073 67.6066 54.0998 68.6829 53.0962 69.7928C53.6781 70.4244 54.4517 71.2642 55.3557 72.2453C54.1345 71.9832 53.121 71.7783 52.1141 71.5459C51.1496 71.3233 50.2168 71.2209 49.395 71.9437C49.2001 72.1152 48.9927 72.2941 48.758 72.3938C48.5442 72.4848 48.2649 72.5493 48.0505 72.4925C47.3012 72.2941 46.5727 72.0208 45.8271 71.8071C43.2101 71.057 40.6171 70.1944 37.9613 69.616C35.6665 69.1162 33.3061 68.7763 30.9609 68.6739C28.4024 68.5622 25.8192 68.7049 23.2635 68.9259C21.3432 69.0919 19.4213 69.4478 17.5509 69.917C15.2916 70.4839 13.0744 71.2258 10.8627 71.9618C9.97791 72.2562 9.15638 72.7367 8.30603 73.1325C8.07636 73.1325 7.84668 73.1325 7.54419 73.0871C7.03348 72.7383 6.42369 72.695 6.19868 72.0655C6.02871 71.5901 5.68303 71.4746 5.1061 71.6438C3.52282 72.1083 1.90433 72.4555 0.125977 72.8917C1.24202 71.6587 2.24534 70.5503 3.2564 69.4333C2.18544 68.5664 1.15961 67.736 0.133786 66.9056C0.133786 66.8467 0.133786 66.7878 0.189507 66.6845C1.39492 66.4192 2.5452 66.2012 3.69413 65.9766C4.6524 65.7893 5.65327 65.7053 6.31557 64.8365C6.89636 64.0746 7.6914 64.0016 8.49091 64.1658C8.80383 64.8759 8.3939 65.213 7.89296 65.5269C7.31105 65.8916 6.74711 66.2842 6.08718 66.7234C12.4009 66.0307 18.1897 63.7701 24.1981 62.3183C23.7468 62.0379 23.299 61.8312 22.8487 61.6302C20.9128 60.7664 18.9735 59.9102 17.0411 59.0388C16.2529 58.6833 15.4151 58.3878 14.7114 57.9058C12.9299 56.6856 11.3805 55.2048 10.0721 53.4851C8.49798 51.416 7.17434 49.2183 6.28266 46.7664C4.68369 42.3696 4.0079 37.7996 3.63189 33.1769C3.4933 31.4731 3.52153 29.7557 3.4901 28.0442C3.48636 27.8407 3.5866 27.6354 3.63865 27.431C5.46588 27.4047 7.29352 27.393 9.12008 27.3425C9.60207 27.3292 9.79405 27.4482 9.79869 27.9552C9.81644 29.8942 9.80545 31.837 9.92731 33.7708C10.2598 39.0469 11.588 44.0188 14.8568 48.319C16.4198 50.3752 18.2767 52.1445 20.6412 53.4666C22.0637 54.1746 23.4103 54.84 24.7569 55.5055C26.6513 56.5863 28.5929 56.9479 30.6337 55.8949C30.8885 55.7634 31.1618 55.6668 31.5143 55.5248C32.9069 54.8057 34.2118 54.1159 35.5167 53.4261ZM16.6085 55.0547C16.5506 54.8685 16.5518 54.6027 16.4244 54.51C15.9292 54.1498 15.3931 53.8446 14.8527 53.4139C14.9175 52.9 14.6374 52.8685 14.3039 53.0855C14.0907 53.2242 13.9798 53.5086 13.7789 53.6758C13.499 53.9086 13.1779 54.0928 12.8745 54.2978C12.8301 54.2437 12.7857 54.1897 12.7413 54.1356C12.9661 53.664 13.2093 53.1997 13.4078 52.7175C13.5066 52.4775 13.5234 52.2044 13.5772 51.9462C13.3446 51.9837 13.1123 52.0242 12.8787 52.0554C12.8438 52.0601 12.803 52.0213 12.7657 52.0009C13.0504 51.2541 12.9334 50.6797 12.4183 50.2953C11.9256 49.9275 11.1411 49.9834 10.5715 50.4615C10.1082 50.8505 9.88682 51.3371 10.1742 51.9285C10.6893 52.9882 11.5469 52.822 12.5924 52.3884C12.376 52.6888 12.2782 52.8259 12.179 52.962C11.7479 53.5541 11.7781 54.1246 12.2633 54.5476C12.7638 54.9839 13.2942 54.9592 13.868 54.4541C14.2121 54.1512 14.5387 53.8289 14.9846 53.5559C15.0506 53.8447 15.1166 54.1334 15.2077 54.5318C15.0511 54.7378 14.8144 55.0518 14.5749 55.3638C14.1349 55.937 14.1336 55.9424 14.5237 56.3473C14.7653 56.0976 15.0144 55.8571 15.2432 55.599C15.47 55.3433 15.6763 55.0698 15.8657 54.8361C16.1613 54.9507 16.3818 55.0362 16.6293 55.2147C16.3082 55.7882 15.9696 56.3532 15.6785 56.9412C15.6072 57.085 15.6914 57.3041 15.7041 57.4886C15.7709 57.4872 15.8377 57.4859 15.9045 57.4846C16.1065 57.2048 16.3086 56.9249 16.5222 56.6291C16.8158 56.7813 17.062 56.909 17.3291 57.0474C17.2065 57.3504 17.0902 57.586 17.02 57.8344C16.9883 57.9468 17.0152 58.1078 17.0815 58.2005C17.1128 58.2443 17.3242 58.2154 17.4121 58.1574C17.8867 57.8441 18.2765 56.6704 18.0913 55.9534C17.9253 56.2033 17.795 56.3996 17.6795 56.5734C17.0175 56.1907 17.0175 56.1907 16.9526 55.0889C16.8294 55.1064 16.706 55.124 16.6085 55.0547ZM47.4919 38.9586C47.4169 39.9854 47.9476 40.6544 48.8533 40.6748C49.6506 40.6928 50.1969 40.141 50.3274 39.1982C50.4437 38.3584 49.6895 38.6797 49.3345 38.4739C49.2361 38.4168 49.0878 38.4438 48.9972 38.4355C48.709 38.818 49.0209 39.6541 48.0161 39.4158C48.1315 38.9694 48.2413 38.5448 48.3586 38.0908C47.7888 38.0876 47.6045 38.4196 47.4919 38.9586ZM26.4359 59.6691C26.1086 59.2617 25.7324 59.3044 25.3391 59.5201C25.4337 59.818 25.5195 60.0885 25.6228 60.4139C24.8037 60.2185 24.723 60.0974 24.7738 59.4317C24.8208 58.8167 25.2903 58.9407 25.6655 58.9116C25.94 58.8903 26.2176 58.9075 26.507 58.9075C26.2807 58.195 25.7686 58.0081 24.9674 58.3008C24.3332 58.5325 23.9482 59.3397 24.1298 60.0569C24.2757 60.6333 25.1739 61.1715 25.8284 61.0746C26.3342 60.9997 26.5364 60.5979 26.4359 59.6691ZM46.4817 48.0898C46.1489 47.8471 45.8481 47.5258 45.4768 47.3778C44.6807 47.0607 43.7182 47.795 43.8171 48.6188C43.8967 49.281 44.2759 49.8075 44.9263 49.9606C45.3027 50.0493 45.8302 49.9822 46.14 49.7708C46.673 49.407 46.7934 48.8094 46.4817 48.0898ZM20.9432 57.0704C20.7074 57.0349 20.4671 56.9518 20.2365 56.9727C19.4378 57.045 18.893 57.8365 19.0168 58.6999C19.1237 59.4456 19.7938 59.9229 20.5643 59.7424C21.2357 59.5852 21.5626 59.0706 21.7344 58.445C21.9139 57.7914 21.5397 57.4178 20.9432 57.0704ZM40.835 55.2421C41.593 55.4687 42.1642 55.2404 42.492 54.5798C42.791 53.9773 42.5208 53.1965 41.8598 52.7532C41.3025 52.3794 40.6743 52.4551 40.1805 52.9557C39.5168 53.6285 39.7425 54.5318 40.835 55.2421ZM46.6938 42.1179C46.6784 42.943 47.5698 42.5872 47.861 42.9963C47.3404 43.4183 46.3005 42.859 46.0484 43.9651C46.9119 44.2534 47.7463 44.5321 48.5806 44.8107C48.624 44.7238 48.6674 44.6368 48.7107 44.5499C48.2807 44.323 47.8506 44.0962 47.4205 43.8694C48.2043 43.8037 48.8204 43.5704 49.2189 42.7144C48.3774 42.489 47.5772 42.2747 46.6938 42.1179ZM5.86629 40.0384C5.37449 40.6324 5.31107 41.217 5.68466 41.7123C6.0864 42.245 6.91467 42.3975 7.62887 42.0703C8.1851 41.8155 8.43775 41.2861 8.30976 40.6438C8.11617 39.6722 7.03709 39.3695 5.86629 40.0384ZM48.7657 30.2766C48.4039 30.572 48.3195 30.9227 48.7931 31.1219C49.5528 31.4413 50.3522 31.6683 51.2582 31.9763C51.0963 31.4762 50.8919 31.0956 50.8703 30.7051C50.8497 30.3345 51.0207 29.9536 51.1273 29.4911C50.3869 29.7302 49.6216 29.9774 48.7657 30.2766ZM26.9371 60.8582C26.9799 60.8907 27.058 60.9542 27.0605 60.9514C27.5621 60.3912 28.126 60.6182 28.6933 60.8119C28.8896 60.8789 29.098 60.9115 29.3869 60.9802C29.0925 60.1805 28.8521 59.4776 28.5694 58.7917C28.4924 58.6048 28.2654 58.3241 28.1473 58.3421C27.9417 58.3735 27.6728 58.5672 27.597 58.7576C27.3389 59.4067 27.1534 60.0841 26.9371 60.8582ZM37.7549 58.029C37.8712 58.0128 37.9874 57.9966 38.2987 57.9532C37.5584 57.304 36.9725 56.7348 36.3265 56.2429C35.8959 55.915 35.5079 56.1339 35.5593 56.6657C35.6338 57.438 35.7907 58.2026 35.9124 58.9704C35.9631 59.0063 36.0137 59.0422 36.0643 59.0781C36.3231 58.2614 36.8097 57.8401 37.7549 58.029ZM22.1985 59.7961C22.2778 59.6968 22.3571 59.5975 22.5645 59.3381C22.9021 59.7584 23.2071 60.138 23.512 60.5176C23.3997 59.8744 23.3073 59.3396 23.8271 58.8268C24.1052 58.5524 23.863 58.2306 23.5321 58.1103C23.1006 57.9535 22.6482 57.8532 22.1079 57.7014C21.943 58.5826 21.7912 59.3941 21.6393 60.2056C21.6964 60.2225 21.7535 60.2395 21.8106 60.2565C21.9203 60.1282 22.03 60 22.1985 59.7961ZM41.6839 52.0902C42.1765 52.4671 42.6568 52.8618 43.171 53.2071C43.2851 53.2836 43.519 53.1856 43.6977 53.168C43.629 53.0258 43.5926 52.8506 43.4851 52.7484C43.2592 52.5335 42.996 52.3568 42.6303 52.0731C43.447 52.0182 44.0825 51.9755 44.8061 51.927C44.3926 50.9971 43.5275 50.7086 42.8378 50.2329C42.778 50.1916 42.6021 50.3148 42.4107 50.3883C42.8456 50.7822 43.2061 51.1086 43.6336 51.4958C42.9991 51.5726 42.4902 51.6143 41.9911 51.7074C41.8507 51.7336 41.7391 51.9109 41.6839 52.0902ZM6.77597 32.8502C6.09316 32.6554 5.41035 32.4607 4.72754 32.2659C4.69493 32.3169 4.66232 32.368 4.62972 32.419C4.85101 32.7367 5.222 33.0406 5.25373 33.3759C5.28923 33.7509 5.01724 34.1545 4.85888 34.6027C5.55672 34.3636 6.22585 34.1583 6.87313 33.8995C7.10116 33.8083 7.3906 33.6195 7.45048 33.417C7.57123 33.0086 7.17131 32.9552 6.77597 32.8502ZM31.0421 59.0728C30.6117 58.7796 30.1813 58.4863 29.751 58.1931C29.6977 58.2489 29.6444 58.3046 29.5911 58.3604C29.7248 59.17 29.491 60.0665 30.3117 60.7355C30.3117 60.2563 30.3117 59.7772 30.3117 59.3394C30.8608 59.7738 31.3787 60.1835 31.8966 60.5933C31.9446 60.5533 31.9926 60.5134 32.0406 60.4734C31.9076 59.6416 31.7747 58.8098 31.6418 57.9779C31.5543 57.9756 31.4667 57.9734 31.3792 57.9711C31.358 58.4136 31.3367 58.8562 31.3154 59.2987C31.2729 59.3366 31.2305 59.3744 31.188 59.4123C31.1583 59.3264 31.1287 59.2405 31.0421 59.0728ZM4.97948 30.2865C4.37781 31.1206 4.44914 31.593 5.28773 31.883C5.28593 31.3064 5.01487 30.5489 6.04357 30.5963C7.04035 30.6422 6.39477 31.5315 6.7886 31.9008C7.39129 31.8858 7.61976 31.6053 7.48263 31.0029C7.25586 30.0066 6.12004 29.6403 4.97948 30.2865ZM49.5681 37.0308C49.5215 36.8064 49.4748 36.582 49.4086 36.2633C49.2887 36.446 49.2415 36.5472 49.1679 36.6235C49.0338 36.7627 48.8841 36.8871 48.7409 37.0177C48.6603 36.8462 48.5659 36.6794 48.5033 36.5017C48.4456 36.3381 48.4221 36.1627 48.3836 35.9925C48.2957 35.9854 48.2079 35.9783 48.12 35.9712C48.024 36.3866 47.8462 36.8066 47.8699 37.2152C47.8802 37.3918 48.2854 37.6125 48.5487 37.6928C48.9463 37.8139 49.3761 37.8348 49.7934 37.8884C50.1669 37.9364 50.5017 37.9098 50.6448 37.4705C50.7823 37.0488 50.9019 36.6428 50.3824 36.2198C50.3172 36.4785 50.2527 36.6512 50.233 36.8287C50.1833 37.2767 49.9563 37.3278 49.5681 37.0308ZM30.5881 66.32C30.6621 66.3567 30.7362 66.3934 30.8103 66.4301C30.446 66.5202 29.9424 66.5752 29.8192 66.3869C29.6766 66.169 29.7531 65.555 29.9412 65.4381C30.2697 65.2339 30.7562 65.2782 31.2079 65.214C31.1802 64.6083 30.6428 64.7383 30.2073 64.8223C29.4264 64.9728 29.1127 65.6027 29.338 66.4558C29.5165 67.1319 30.1048 67.4439 30.8482 67.2569C31.545 67.0816 31.6189 66.9125 31.341 65.8846C31.0608 66.0068 30.7978 66.1214 30.5881 66.32ZM7.15762 39.1121C7.36034 39.0272 7.56305 38.9422 7.84335 38.8247C7.34821 38.5579 6.63991 38.686 6.76809 38.0082C6.83938 37.6312 7.20232 37.3081 7.47059 36.9056C6.67556 37.0074 5.87606 37.1098 5.03676 37.2173C5.35971 37.7247 6.1422 37.3411 6.18685 38.1571C6.23005 38.9465 5.34243 38.6679 5.13287 39.3477C5.82943 39.2703 6.44033 39.2025 7.15762 39.1121ZM49.0803 33.6459C48.2982 33.801 48.1194 34.1725 48.282 35.3899C49.0666 35.4411 49.8641 35.4931 50.6617 35.5452C50.6711 35.5041 50.6804 35.4631 50.6898 35.422C50.4465 35.2497 50.2031 35.0774 49.9207 34.8774C50.2541 34.5208 50.5663 34.1868 50.8784 33.8529C50.2462 34.0667 49.6921 34.1064 49.0803 33.6459ZM38.6882 68.1395C39.1505 67.8279 39.0383 67.4759 38.7383 67.1382C38.4666 66.8322 38.1663 66.551 37.8785 66.2589C37.9264 66.1961 37.9743 66.1334 38.0221 66.0707C38.3582 66.2592 38.6943 66.4478 39.0487 66.6467C39.0411 66.1118 38.7688 65.7184 38.3114 65.7408C37.9896 65.7565 37.5427 65.9221 37.3943 66.1655C37.1373 66.5872 37.4855 66.8878 37.8889 67.0677C37.9496 67.0947 38.0174 67.1183 38.0638 67.1622C38.2129 67.3036 38.3685 67.4436 38.4832 67.61C38.5033 67.639 38.3292 67.8804 38.2589 67.8739C38.0309 67.8529 37.7824 67.8044 37.5934 67.686C37.4219 67.5786 37.3179 67.3658 37.1208 67.1208C37.0043 68.0942 37.5566 68.4363 38.6882 68.1395ZM12.123 69.4147C11.7568 69.0799 11.8178 68.8465 12.2833 68.679C12.5121 68.5967 12.7249 68.4707 12.9449 68.3644C12.9128 68.2899 12.8807 68.2154 12.8486 68.1409C12.4745 68.2178 12.1004 68.2948 11.7085 68.3754C11.4038 67.4945 12.5893 67.7986 12.6195 67.1085C12.0527 67.2714 11.5177 67.425 10.973 67.5815C11.2276 68.4434 11.4543 69.2111 11.7012 70.0469C12.3235 69.819 12.8586 69.6231 13.3938 69.4271C13.3669 69.3337 13.3399 69.2403 13.313 69.147C12.9529 69.2347 12.5928 69.3224 12.123 69.4147ZM19.1863 65.4227C18.4738 65.7021 18.1178 66.1823 18.2346 66.7961C18.3408 67.3545 18.5821 67.8513 19.2296 67.9634C19.9417 68.0867 20.4986 67.6069 20.5617 66.845C20.6332 65.9803 20.1407 65.4221 19.1863 65.4227ZM24.9768 66.8991C25.0479 66.8967 25.119 66.8943 25.1902 66.892C25.0662 66.6912 24.9423 66.4905 24.8184 66.2898C25.0265 65.8983 25.199 65.4567 25.0938 65.0939C24.9791 64.6985 24.0017 64.6886 23.1813 65.025C23.2969 65.723 23.4153 66.4384 23.5337 67.1538C23.5833 67.1484 23.6328 67.1429 23.6824 67.1375C23.7142 66.891 23.7459 66.6445 23.8037 66.1958C24.2372 66.4461 24.5715 66.6391 24.9768 66.8991ZM32.4297 65.4226C32.3649 65.2653 32.3001 65.1079 32.2352 64.9506C32.1628 64.9648 32.0904 64.979 32.018 64.9931C32.1118 65.7968 31.7019 66.5901 31.9894 67.3977C32.0593 67.4084 32.1293 67.4191 32.1993 67.4298C32.2897 67.0884 32.3801 66.7469 32.4669 66.4189C32.7872 66.4189 33.0888 66.4189 33.449 66.4189C33.449 66.8192 33.449 67.1715 33.449 67.573C33.9431 67.1228 34.0739 65.7401 33.678 64.9437C33.5724 65.3461 33.4935 65.6469 33.4041 65.9879C33.0711 65.8444 32.5243 66.2141 32.4297 65.4226ZM8.20326 45.6312C7.47451 46.0377 7.22096 46.5497 7.45776 47.1755C7.61285 47.5853 7.84288 47.9043 8.42213 47.7538C8.30973 47.5479 8.2087 47.3814 8.12541 47.2065C7.9418 46.8212 7.94129 46.5228 8.48592 46.4791C8.63783 46.4669 8.78371 46.3922 8.93591 46.3707C9.44755 46.2984 9.67769 46.0581 9.45321 45.4477C9.07462 45.4944 8.68813 45.5421 8.20326 45.6312ZM34.3949 58.633C34.4998 58.6764 34.6047 58.7199 34.7673 58.7873C34.5423 58.9511 34.39 59.0621 34.2377 59.173C34.2518 59.2056 34.266 59.2382 34.2801 59.2707C34.6811 59.1977 35.0822 59.1246 35.4374 59.0599C35.6998 57.7987 34.3372 58.2674 33.9999 57.6259C34.2611 57.4913 34.4935 57.3716 34.7769 57.2255C34.6385 57.0989 34.5864 57.0156 34.5138 56.9904C34.0175 56.8187 33.4852 57.0973 33.3641 57.5814C33.2091 58.2014 33.4577 58.4715 34.3949 58.633ZM39.6232 66.3595C39.4708 67.061 39.3184 67.7625 39.1659 68.4641C39.2638 68.4924 39.3616 68.5208 39.4594 68.5491C39.5955 68.2192 39.7315 67.8892 39.8773 67.5355C40.2127 67.6137 40.5109 67.6832 40.7983 67.7502C40.7983 68.1443 40.7983 68.5089 40.7983 68.9633C41.3153 68.3702 41.5171 67.0614 41.1958 66.5016C41.0826 66.8012 40.9875 67.0528 40.8809 67.3347C40.5615 67.2677 40.2633 67.2051 40.0502 67.1604C39.9014 66.8198 39.7822 66.547 39.6232 66.3595ZM45.9348 45.6555C45.716 45.14 45.4486 45.2074 45.2223 45.6298C45.0732 45.9081 45.0034 46.228 44.8833 46.5714C45.7869 46.9043 46.626 47.2134 47.4651 47.5226C47.487 47.4694 47.509 47.4162 47.5309 47.3629C47.218 46.9867 46.905 46.6105 46.5447 46.1774C46.5255 46.1873 46.3727 46.2655 46.2033 46.3524C46.1055 46.1156 46.0309 45.9349 45.9348 45.6555ZM45.6099 69.1647C45.8826 69.2098 46.1553 69.2549 46.428 69.3C46.4458 69.229 46.4637 69.158 46.4816 69.087C46.2545 68.9769 46.0148 68.8859 45.8048 68.75C45.663 68.6583 45.5631 68.5033 45.4445 68.3766C45.6073 68.3205 45.7706 68.2168 45.9327 68.2188C46.2215 68.2224 46.5096 68.2899 46.798 68.3307C46.8185 68.2598 46.8391 68.1888 46.8597 68.1179C46.3333 67.9379 45.8069 67.7579 45.2249 67.559C45.0099 68.3055 44.8064 68.9299 44.6648 69.5678C44.6341 69.7057 44.7862 69.9726 44.9235 70.0382C45.1731 70.1574 45.4746 70.1704 45.9098 70.2595C44.9747 69.5171 44.9683 69.4932 45.6099 69.1647ZM39.0165 57.4436C38.9561 57.1447 38.9585 56.8138 38.8225 56.5534C38.5293 55.992 37.8622 55.5445 38.5069 54.7531C38.4424 54.7335 38.378 54.7139 38.3136 54.6944C37.7621 55.0433 37.2107 55.3923 36.6593 55.7413C36.6828 55.8248 36.7064 55.9084 36.73 55.9919C37.0163 55.9716 37.3027 55.9513 37.4947 55.9377C37.9954 56.4804 38.4634 56.9877 39.0165 57.4436ZM42.3401 68.9849C42.3827 69.0945 42.4253 69.2041 42.468 69.3137C42.5587 69.2429 42.6973 69.1896 42.7318 69.0981C42.8629 68.75 42.9605 68.3894 43.1154 67.8885C43.4519 68.5891 43.7139 69.1344 44.0399 69.8132C44.2599 68.9336 44.4422 68.2048 44.6245 67.476C44.5519 67.4547 44.4794 67.4335 44.4068 67.4122C44.2573 67.8464 44.1078 68.2806 43.9446 68.7548C43.6395 68.1137 43.3687 67.5449 43.098 66.9761C43.0266 66.9872 42.9553 66.9984 42.8839 67.0096C42.7092 67.6313 42.5346 68.253 42.3401 68.9849ZM6.62077 35.1211C5.99679 35.2473 5.37281 35.3735 4.74882 35.4997C4.73634 35.5832 4.72387 35.6667 4.71139 35.7501C4.94858 35.8128 5.18228 35.9003 5.42361 35.9334C6.10679 36.0272 6.89859 35.4082 7.48851 36.2988C7.42472 35.6237 7.73769 34.9162 7.04348 34.3849C6.91786 34.6723 6.824 34.887 6.62077 35.1211ZM11.4831 49.6817C11.5133 49.6636 11.5474 49.6494 11.5715 49.6254C11.58 49.617 11.5703 49.5706 11.5582 49.5652C11.2282 49.4184 10.8968 49.2746 10.6435 49.1643C10.7911 48.6869 10.9114 48.2979 11.0687 47.7889C10.8371 47.8858 10.7631 47.896 10.7205 47.9377C10.1454 48.5006 9.56893 49.0626 9.01046 49.6414C8.94407 49.7102 8.92857 49.9393 8.98308 49.9851C9.07763 50.0644 9.25339 50.1033 9.38108 50.0809C10.0498 49.9637 10.7141 49.822 11.4831 49.6817ZM8.4369 42.3811C7.82396 42.5496 7.21709 42.7458 6.59634 42.8787C5.98697 43.009 6.08447 43.4086 6.2307 43.7768C6.3162 43.9921 6.55519 44.1477 6.79973 44.4103C6.79973 44.0192 6.79973 43.7675 6.79973 43.4928C7.32487 43.3341 7.85994 43.2005 8.37156 43.0064C8.63768 42.9055 9.02014 42.7383 8.4369 42.3811ZM17.362 67.6292C17.4996 67.0246 17.6371 66.4199 17.7747 65.8152C17.7216 65.7832 17.6684 65.7513 17.6153 65.7193C17.4049 66.0743 17.1944 66.4294 16.9757 66.7982C16.6349 66.5997 16.2747 66.3899 15.8443 66.1393C16.3287 66.9526 16.7473 67.6554 17.2866 68.5611C17.3372 68.1785 17.3659 67.961 17.362 67.6292ZM48.6599 32.2955C48.569 32.4625 48.478 32.6296 48.3676 32.8326C49.1685 32.9306 49.8204 33.0363 50.4765 33.0806C50.8413 33.1051 51.3309 33.1437 51.1042 32.4725C50.3109 32.4152 49.5424 32.3597 48.6599 32.2955ZM49.0876 41.3325C48.533 41.1958 47.9821 41.039 47.4211 40.9361C47.2762 40.9095 47.0995 41.0518 46.9374 41.1166C47.0399 41.2397 47.1196 41.433 47.2488 41.474C47.8328 41.6594 48.4259 41.8264 49.0268 41.945C49.2116 41.9815 49.4316 41.8434 49.6355 41.7852C49.4879 41.6388 49.3403 41.4925 49.0876 41.3325ZM32.322 57.6782C32.4839 58.4974 32.6387 59.3181 32.8291 60.1308C32.8383 60.17 33.2551 60.209 33.3192 60.1257C33.5448 59.8321 32.8933 57.817 32.542 57.6163C32.5118 57.5991 32.4566 57.6247 32.322 57.6782ZM9.10756 44.063C8.35246 44.3262 7.59548 44.5843 6.84524 44.8604C6.77202 44.8874 6.69785 45.0268 6.70183 45.1105C6.70556 45.1888 6.79736 45.302 6.87647 45.3315C7.35559 45.5102 9.06507 44.7634 9.25006 44.2995C9.26808 44.2543 9.21281 44.1805 9.10756 44.063ZM14.1088 66.6194C13.7359 66.7328 13.3631 66.8462 12.9902 66.9596C13.0064 67.0304 13.0226 67.1012 13.0389 67.172C13.2793 67.172 13.5196 67.172 13.7578 67.172C13.9931 67.835 14.214 68.4575 14.4349 69.0799C14.864 68.2196 13.6993 67.2832 14.8232 66.4889C14.6189 66.5199 14.4146 66.5509 14.1088 66.6194ZM34.8622 67.3939C34.909 67.4892 34.9559 67.5846 35.068 67.8127C35.1909 67.439 35.3176 67.1856 35.3524 66.9205C35.4285 66.3417 35.1716 65.6092 36.2774 65.5719C36.2282 65.4966 36.1791 65.4213 36.1299 65.3459C35.5381 65.288 34.9464 65.23 34.3546 65.1721C34.3399 65.2618 34.3253 65.3515 34.3106 65.4413C34.5204 65.513 34.7301 65.5847 34.9766 65.6689C34.933 66.2014 34.8886 66.7436 34.8622 67.3939ZM39.5934 55.7806C39.7468 55.9659 39.88 56.175 40.0623 56.3261C40.1501 56.3988 40.3452 56.4018 40.4632 56.3591C40.5271 56.336 40.5954 56.0986 40.5523 56.0466C40.0779 55.4746 39.5922 54.9104 39.0809 54.3706C39.0013 54.2866 38.7779 54.3359 38.621 54.3236C38.5771 54.3852 38.5332 54.4469 38.4892 54.5085C38.8348 54.9098 39.1803 55.3111 39.5934 55.7806ZM26.6768 67.1832C27.1107 67.1701 27.5446 67.157 27.9785 67.1439C27.9988 67.0638 28.0192 66.9837 28.0395 66.9036C27.1215 67.0269 26.9681 66.5801 27.0413 65.8532C27.0699 65.5693 26.8493 65.2609 26.7423 64.9636C26.6901 64.9829 26.638 65.0022 26.5858 65.0215C26.5858 65.7196 26.5858 66.4177 26.6768 67.1832ZM9.82203 70.1986C10.2167 70.9553 10.4725 70.2122 10.8061 70.1351C10.273 70.1901 10.1446 69.8904 10.0176 69.4627C9.88923 69.0308 9.61042 68.6427 9.39754 68.2355C9.3204 68.2699 9.24326 68.3044 9.16613 68.3388C9.3736 68.9284 9.58107 69.518 9.82203 70.1986ZM28.9415 66.0413C28.8833 65.6438 28.8251 65.2463 28.7669 64.8488C28.6939 64.8581 28.6209 64.8673 28.5479 64.8766C28.5479 65.6387 28.5479 66.4009 28.5479 67.163C28.6245 67.1696 28.7011 67.1762 28.7776 67.1827C28.8322 66.8422 28.8869 66.5016 28.9415 66.0413ZM41.5933 68.373C41.5933 68.6039 41.5933 68.8348 41.5933 69.199C42.1974 68.5506 42.4216 67.2598 42.0425 66.695C41.8934 67.2725 41.7646 67.7711 41.5933 68.373ZM22.8751 66.6586C22.8192 66.118 22.9629 65.5158 22.3943 64.9686C22.3943 65.8057 22.3943 66.4774 22.3943 67.3751C22.6171 67.0923 22.7435 66.9318 22.8751 66.6586ZM21.0267 65.3257C21.0136 65.3082 21.0032 65.2874 20.9865 65.2744C20.978 65.2678 20.9454 65.2761 20.9454 65.2765C20.9765 65.8697 20.9937 66.4647 21.0641 67.0534C21.0721 67.1197 21.3804 67.1509 21.6676 67.2315C21.4273 66.5209 21.2404 65.9684 21.0267 65.3257Z" fill="#139243"/>
<path d="M38.135 23.9314C37.2658 24.996 36.4026 26.0067 35.6076 27.0674C35.153 27.674 34.6529 28.0595 33.8579 28.11C33.2227 28.1504 32.5968 28.333 31.8494 28.5377C33.1582 29.2819 33.7783 30.1727 32.6847 31.4726C32.6969 31.4746 32.6374 31.4833 32.6135 31.4584C31.7191 30.5292 30.7952 30.4848 29.6369 31.0989C28.1709 31.8762 26.8839 31.1994 25.7222 30.2561C24.7097 29.434 23.6988 28.6099 22.6841 27.7904C22.5838 27.7094 22.4515 27.5835 22.3522 27.5981C21.5607 27.7149 21.2753 27.1409 20.9384 26.6269C20.5871 26.0908 20.204 25.573 19.8839 25.0195C19.2142 23.8615 18.9866 22.4782 20.4439 21.15C20.5594 21.3001 20.6833 21.438 20.781 21.5922C21.2896 22.3954 21.7973 23.1992 22.2944 24.0094C23.1183 25.3521 24.3751 25.93 25.9651 26.0478C25.9651 25.3367 25.884 24.6271 25.993 23.9473C26.0685 23.4762 26.3288 22.9826 26.6421 22.6108C27.297 21.8338 28.0259 21.1149 28.7563 20.4043C29.0866 20.083 29.475 19.8095 29.8692 19.5651C30.6413 19.0864 31.4169 18.6066 32.2273 18.1974C32.8582 17.8789 33.544 17.6668 34.269 17.5035C33.5421 19.5951 32.2487 21.3841 31.8451 23.7446C34.175 21.9602 36.6382 22.5635 39.0523 22.6964C39.0912 22.7721 39.1301 22.8477 39.169 22.9234C38.8358 23.2484 38.5026 23.5735 38.135 23.9314Z" fill="#FEFDFA"/>
<path d="M35.5106 53.3683C34.2115 54.116 32.9067 54.8057 31.554 55.4952C31.5425 54.9436 31.5248 54.3826 31.6241 53.8426C32.1854 50.7915 32.5663 47.6868 33.4204 44.7162C34.101 42.349 35.3434 40.135 36.4003 37.8823C36.6241 37.4055 37.103 37.032 37.5097 36.6593C37.6871 36.4968 37.979 36.4565 38.2189 36.3607C38.2543 36.4136 38.2898 36.4665 38.3253 36.5195C37.8081 37.7323 37.2908 38.9452 36.7736 40.158C36.808 40.2131 36.8423 40.2681 36.8767 40.3232C37.4199 40.0399 38.0294 39.8358 38.4931 39.4571C39.5403 38.6021 40.53 37.6758 41.5146 36.749C42.1371 36.1631 42.7082 35.524 43.381 34.8273C43.8681 35.9467 43.6698 36.9035 43.5011 37.8435C42.9084 41.1459 41.1218 43.6609 38.2059 45.3398C37.1306 45.9589 36.5111 46.7378 36.3505 47.9642C36.1163 49.7524 35.7911 51.5289 35.5106 53.3683Z" fill="#FDFDFA"/>
<path d="M24.7678 55.4492C23.4106 54.8401 22.064 54.1747 20.6895 53.484C20.3271 51.352 20.0128 49.2418 19.6472 47.1404C19.5184 46.4002 18.9323 45.9841 18.3399 45.5475C17.1848 44.6963 16.0294 43.8226 15.0062 42.8255C13.9022 41.7497 13.3129 40.3947 13.2407 38.8056C13.1831 37.54 12.94 36.2826 12.7793 35.0216C12.8432 34.9784 12.907 34.9352 12.9709 34.892C13.5654 35.537 14.13 36.2126 14.7626 36.8187C15.4167 37.4453 16.1052 38.0469 16.8371 38.5811C17.5701 39.116 18.3754 39.5541 19.2129 40.0675C19.3084 40.0916 19.3398 40.0831 19.3713 40.0745C19.3477 40.0508 19.3241 40.0272 19.3005 40.0036C18.8238 38.8284 18.3471 37.6532 17.8705 36.4781C17.9137 36.4198 17.9569 36.3616 18.0002 36.3034C18.3222 36.4803 18.7442 36.5826 18.9471 36.8484C19.5201 37.5991 20.0605 38.3863 20.5117 39.2135C22.3402 42.5653 23.3349 46.1739 23.8539 49.9338C24.0762 51.5443 24.4309 53.1368 24.7192 54.7386C24.7578 54.9533 24.7595 55.1746 24.7678 55.4492Z" fill="#FDFDFA"/>
<path d="M32.7293 31.8776C32.6568 32.3959 32.6278 32.9037 32.4457 33.3505C31.9643 34.5319 32.0388 34.7738 33.1146 35.4321C33.3511 35.5768 33.5672 35.9064 33.6117 36.1797C33.8267 37.5018 33.9799 38.8338 34.155 40.1622C34.1012 40.1975 34.0474 40.2327 33.9936 40.268C33.4742 39.5562 32.789 38.9073 32.4814 38.1151C32.1642 37.2985 32.2147 36.3423 32.0986 35.4008C31.9977 35.4394 31.8787 35.4495 31.8184 35.5136C30.9848 36.3984 30.967 38.1312 31.9229 38.8653C33.0301 39.7155 33.2948 40.6815 32.8319 41.9356C32.6883 42.3245 32.6226 42.7414 32.5276 43.1204C30.8835 41.8235 30.7273 39.9741 30.673 38.0678C30.1045 38.4569 29.755 39.4149 29.945 40.2829C30.0593 40.8051 30.3775 41.2811 30.5754 41.7888C30.6818 42.0619 30.8396 42.3825 30.7819 42.6395C30.499 43.8997 30.1516 45.1457 29.7963 46.5151C28.9761 44.918 28.4312 43.404 29.0946 41.6949C27.9982 42.7823 26.6967 42.04 25.498 42.2113C26.258 41.3793 26.5159 40.0571 27.943 39.9532C28.0731 39.9437 28.1997 39.8831 28.3272 39.8437C29.428 39.5037 29.9512 38.7552 29.9495 37.4408C29.6007 37.6611 29.2946 37.8675 28.9761 38.053C28.2566 38.4718 27.709 38.3908 27.1058 37.8284C26.6214 37.3768 26.1133 36.9501 25.5362 36.4423C26.3882 36.0884 27.0209 35.7787 27.6865 35.5732C27.9378 35.4956 28.3003 35.5938 28.5508 35.7258C29.1143 36.0227 29.6395 36.3908 30.241 36.768C30.5852 36.22 30.8967 35.724 31.2568 35.1507C30.1722 35.0005 28.9289 35.5145 28.2501 34.5424C27.6805 33.7266 27.4403 32.6858 27.0543 31.7446C27.1262 31.6781 27.198 31.6116 27.2699 31.545C28.0779 31.7997 28.9127 31.9959 29.6798 32.3399C29.958 32.4646 30.0865 32.936 30.2609 33.2609C30.4384 33.5913 30.5844 33.938 30.7512 34.2742C31.0258 34.8276 31.4052 34.8804 31.6963 34.3275C31.979 33.7909 32.0946 33.1701 32.3097 32.5958C32.4085 32.3319 32.5699 32.0908 32.7293 31.8776Z" fill="#159142"/>
<path d="M31.6324 8.19698C31.4643 8.3698 31.2991 8.56683 31.1209 8.57896C30.5232 8.61967 29.9209 8.59442 29.2445 8.59442C29.2288 8.87006 29.2046 9.10291 29.204 9.33583C29.199 11.1445 29.2034 12.9532 29.1945 14.7619C29.1903 15.63 29.18 15.6301 28.3125 15.6322C28.0726 15.6328 27.8327 15.6323 27.5058 15.6323C27.5058 13.2804 27.5058 10.9962 27.5058 8.60969C26.6576 8.60969 25.8935 8.60969 25.0918 8.60969C25.0918 8.13988 25.0918 7.77277 25.0918 7.28199C25.5409 7.28199 25.997 7.28544 26.453 7.28131C27.6359 7.27061 27.6334 7.26925 27.6451 6.06075C27.6507 5.48776 27.6658 4.91482 27.6829 4.34205C27.6847 4.28117 27.7296 4.22155 27.7636 4.13916C28.1772 4.13916 28.5931 4.13916 29.0813 4.13916C29.1308 5.12839 29.1789 6.08912 29.2333 7.17572C29.6986 7.17572 30.1562 7.17086 30.6136 7.17672C31.6014 7.18939 31.6014 7.19164 31.6324 8.19698Z" fill="#FCFBF7"/>
<path d="M14.8734 53.5155C14.5389 53.829 14.2124 54.1513 13.8683 54.4542C13.2944 54.9593 12.7641 54.984 12.2636 54.5477C11.7784 54.1247 11.7482 53.5541 12.1793 52.9621C12.2784 52.826 12.3763 52.6889 12.5927 52.3885C11.5471 52.8221 10.6895 52.9882 10.1745 51.9285C9.88707 51.3372 10.1084 50.8505 10.5718 50.4616C11.1414 49.9835 11.9258 49.9276 12.4186 50.2953C12.9336 50.6798 13.0506 51.2542 12.7656 52.0018C12.8032 52.0213 12.8441 52.0602 12.879 52.0555C13.1125 52.0243 13.3448 51.9838 13.5775 51.9463C13.5236 52.2045 13.5068 52.4775 13.408 52.7176C13.2095 53.1998 12.9663 53.664 12.7415 54.1357C12.7859 54.1898 12.8303 54.2438 12.8747 54.2979C13.1782 54.0929 13.4993 53.9086 13.7791 53.6759C13.98 53.5087 14.0909 53.2242 14.3041 53.0855C14.6376 52.8686 14.9177 52.9 14.8645 53.4677C14.876 53.5214 14.8734 53.5155 14.8734 53.5155ZM12.1218 51.8018C12.3939 51.4655 12.7275 51.08 12.1502 50.7818C11.6842 50.541 11.1562 50.6371 10.8431 51.0871C10.7017 51.2904 10.6284 51.7192 10.7494 51.8872C11.067 52.3286 11.5267 52.1621 11.9393 51.9459C11.9783 51.9256 12.0124 51.8962 12.1218 51.8018Z" fill="#F3F9F6"/>
<path d="M47.5081 38.909C47.6049 38.4196 47.7891 38.0876 48.3589 38.0908C48.2416 38.5448 48.1318 38.9694 48.0164 39.4158C49.0212 39.6541 48.7093 38.818 48.9975 38.4355C49.0881 38.4438 49.2364 38.4168 49.3348 38.4739C49.6898 38.6798 50.444 38.3584 50.3277 39.1982C50.1973 40.141 49.6509 40.6928 48.8536 40.6748C47.9479 40.6544 47.4172 39.9854 47.5081 38.909Z" fill="#F1F8F4"/>
<path d="M26.4627 59.7153C26.5366 60.5979 26.3345 60.9997 25.8286 61.0746C25.1742 61.1715 24.276 60.6333 24.13 60.0569C23.9484 59.3397 24.3335 58.5325 24.9676 58.3008C25.7689 58.0081 26.281 58.195 26.5073 58.9075C26.2178 58.9075 25.9402 58.8903 25.6657 58.9116C25.2906 58.9407 24.821 58.8167 24.7741 59.4317C24.7232 60.0974 24.8039 60.2185 25.623 60.4139C25.5198 60.0885 25.4339 59.818 25.3394 59.5201C25.7326 59.3044 26.1088 59.2617 26.4627 59.7153Z" fill="#EEF6F1"/>
<path d="M46.5056 48.1374C46.7939 48.8095 46.6735 49.4071 46.1405 49.7708C45.8306 49.9823 45.3032 50.0493 44.9268 49.9607C44.2764 49.8076 43.8971 49.2811 43.8176 48.6188C43.7187 47.7951 44.6811 47.0608 45.4773 47.3779C45.8486 47.5258 46.1494 47.8471 46.5056 48.1374ZM44.5071 48.2231C44.4932 48.417 44.4339 48.6206 44.4743 48.8028C44.5747 49.2563 45.3109 49.6304 45.707 49.3692C45.9155 49.2317 46.0872 48.81 46.0366 48.5648C45.9274 48.0355 45.1132 47.8311 44.5071 48.2231Z" fill="#F0F8F3"/>
<path d="M20.9926 57.0884C21.5395 57.4178 21.9137 57.7914 21.7342 58.445C21.5624 59.0706 21.2354 59.5852 20.564 59.7424C19.7936 59.9229 19.1235 59.4456 19.0166 58.6999C18.8928 57.8365 19.4376 57.045 20.2363 56.9727C20.4669 56.9518 20.7071 57.0349 20.9926 57.0884ZM20.8365 57.5898C19.9021 57.3801 19.4593 57.9869 19.7947 59.2026C20.1376 59.0958 20.5871 59.086 20.7934 58.8596C21.0749 58.5505 21.392 58.0957 20.8365 57.5898Z" fill="#F2F8F5"/>
<path d="M40.7886 55.2216C39.7428 54.5319 39.5171 53.6285 40.1808 52.9557C40.6746 52.4552 41.3027 52.3794 41.8601 52.7532C42.5211 53.1965 42.7913 53.9773 42.4923 54.5799C42.1645 55.2404 41.5933 55.4687 40.7886 55.2216ZM41.5707 54.7152C41.7336 54.4922 42.0793 54.1951 42.0236 54.0609C41.8842 53.7248 41.6028 53.4054 41.2968 53.1958C41.1548 53.0986 40.7434 53.1971 40.5997 53.3452C40.4603 53.4887 40.3895 53.9136 40.4961 54.0316C40.7546 54.3179 41.1339 54.4975 41.5707 54.7152Z" fill="#EFF7F3"/>
<path d="M46.7358 42.0892C47.5776 42.2748 48.3778 42.4891 49.2193 42.7144C48.8208 43.5705 48.2048 43.8037 47.421 43.8694C47.851 44.0962 48.2811 44.3231 48.7111 44.5499C48.6678 44.6369 48.6244 44.7238 48.5811 44.8108C47.7467 44.5321 46.9123 44.2535 46.0488 43.9652C46.3009 42.8591 47.3408 43.4184 47.8614 42.9964C47.5702 42.5873 46.6788 42.9431 46.7358 42.0892Z" fill="#EEF7F2"/>
<path d="M5.90834 40.01C7.0377 39.3696 8.11678 39.6723 8.31037 40.6438C8.43836 41.2862 8.18571 41.8155 7.62948 42.0703C6.91528 42.3975 6.08701 42.245 5.68527 41.7124C5.31168 41.217 5.3751 40.6325 5.90834 40.01ZM6.20353 41.5298C6.51037 41.5515 6.82332 41.6209 7.12262 41.5835C7.57078 41.5276 7.87471 41.2698 7.77011 40.7742C7.67147 40.3069 7.30622 40.1199 6.87206 40.2222C6.02956 40.4208 5.84028 40.7619 6.20353 41.5298Z" fill="#F0F8F3"/>
<path d="M48.811 30.2506C49.6217 29.9774 50.387 29.7302 51.1273 29.4911C51.0207 29.9536 50.8498 30.3345 50.8703 30.7051C50.8919 31.0956 51.0964 31.4762 51.2582 31.9763C50.3522 31.6683 49.5528 31.4413 48.7931 31.1219C48.3195 30.9228 48.4039 30.572 48.811 30.2506Z" fill="#F0F8F3"/>
<path d="M26.9385 60.8044C27.1532 60.0841 27.3387 59.4067 27.5969 58.7576C27.6727 58.5672 27.9416 58.3735 28.1471 58.3421C28.2653 58.3241 28.4923 58.6048 28.5693 58.7917C28.852 59.4776 29.0924 60.1805 29.3867 60.9803C29.0979 60.9115 28.8895 60.879 28.6932 60.8119C28.1259 60.6182 27.562 60.3912 27.0604 60.9514C27.0579 60.9542 26.9798 60.8907 26.9385 60.8044Z" fill="#F0F7F3"/>
<path d="M37.7004 58.0275C36.8097 57.8401 36.3231 58.2614 36.0643 59.0781C36.0137 59.0422 35.9631 59.0063 35.9124 58.9704C35.7907 58.2025 35.6338 57.438 35.5593 56.6656C35.508 56.1339 35.8959 55.9149 36.3265 56.2429C36.9725 56.7348 37.5584 57.3039 38.2987 57.9532C37.9875 57.9965 37.8712 58.0127 37.7004 58.0275Z" fill="#EDF6F1"/>
<path d="M22.1694 59.8338C22.0304 59.9999 21.9207 60.1282 21.811 60.2565C21.7539 60.2395 21.6968 60.2225 21.6396 60.2055C21.7915 59.3941 21.9434 58.5826 22.1083 57.7014C22.6485 57.8532 23.101 57.9535 23.5324 58.1103C23.8634 58.2305 24.1056 58.5524 23.8275 58.8268C23.3077 59.3396 23.4 59.8744 23.5124 60.5175C23.2074 60.1379 22.9025 59.7583 22.5648 59.338C22.3575 59.5975 22.2782 59.6968 22.1694 59.8338Z" fill="#EFF7F2"/>
<path d="M41.6494 52.0545C41.7394 51.9109 41.851 51.7336 41.9913 51.7075C42.4905 51.6143 42.9994 51.5726 43.6338 51.4958C43.2064 51.1087 42.8459 50.7822 42.411 50.3883C42.6024 50.3148 42.7783 50.1916 42.8381 50.2329C43.5278 50.7086 44.3929 50.9971 44.8063 51.927C44.0828 51.9755 43.4472 52.0182 42.6306 52.0731C42.9962 52.3568 43.2594 52.5335 43.4854 52.7484C43.5928 52.8507 43.6293 53.0258 43.6979 53.168C43.5192 53.1856 43.2853 53.2836 43.1713 53.2071C42.657 52.8618 42.1767 52.4671 41.6494 52.0545Z" fill="#EDF6F1"/>
<path d="M6.82924 32.8565C7.17147 32.9552 7.57139 33.0087 7.45064 33.4171C7.39076 33.6196 7.10133 33.8084 6.87329 33.8996C6.22602 34.1584 5.55689 34.3637 4.85904 34.6028C5.0174 34.1546 5.28939 33.751 5.25389 33.376C5.22216 33.0407 4.85118 32.7368 4.62988 32.4191C4.66249 32.3681 4.69509 32.317 4.7277 32.266C5.41051 32.4608 6.09332 32.6555 6.82924 32.8565Z" fill="#F0F8F3"/>
<path d="M31.0712 59.1137C31.1293 59.2405 31.159 59.3265 31.1887 59.4124C31.2312 59.3745 31.2736 59.3367 31.3161 59.2988C31.3373 58.8563 31.3586 58.4137 31.3799 57.9712C31.4674 57.9735 31.5549 57.9757 31.6424 57.978C31.7754 58.8099 31.9083 59.6417 32.0412 60.4735C31.9933 60.5135 31.9453 60.5534 31.8973 60.5933C31.3794 60.1836 30.8614 59.7738 30.3124 59.3395C30.3124 59.7773 30.3124 60.2564 30.3124 60.7355C29.4916 60.0666 29.7254 59.1701 29.5918 58.3605C29.6451 58.3047 29.6984 58.249 29.7517 58.1932C30.182 58.4864 30.6124 58.7796 31.0712 59.1137Z" fill="#EEF7F2"/>
<path d="M16.5829 55.1417C16.7063 55.1241 16.8296 55.1065 16.9528 55.0889C17.0177 56.1907 17.0177 56.1907 17.6798 56.5734C17.7952 56.3996 17.9256 56.2033 18.0915 55.9534C18.2768 56.6705 17.8869 57.8441 17.4123 58.1574C17.3244 58.2154 17.113 58.2443 17.0818 58.2005C17.0154 58.1078 16.9886 57.9468 17.0203 57.8344C17.0904 57.586 17.2067 57.3504 17.3293 57.0474C17.0623 56.909 16.816 56.7813 16.5224 56.6292C16.3088 56.9249 16.1068 57.2048 15.9047 57.4846C15.8379 57.4859 15.7711 57.4873 15.7043 57.4886C15.6916 57.3041 15.6075 57.085 15.6787 56.9412C15.9698 56.3532 16.3084 55.7882 16.6114 55.173C16.5933 55.1314 16.5829 55.1417 16.5829 55.1417Z" fill="#F0F7F3"/>
<path d="M5.01983 30.2539C6.12069 29.6403 7.25651 30.0066 7.48328 31.0029C7.62041 31.6054 7.39194 31.8859 6.78925 31.9008C6.39543 31.5316 7.041 30.6422 6.04422 30.5963C5.01553 30.5489 5.28659 31.3064 5.28839 31.8831C4.4498 31.593 4.37847 31.1206 5.01983 30.2539Z" fill="#F0F7F3"/>
<path d="M49.5844 37.0818C49.9567 37.3278 50.1838 37.2767 50.2334 36.8287C50.2531 36.6512 50.3176 36.4785 50.3828 36.2198C50.9023 36.6428 50.7827 37.0488 50.6452 37.4705C50.5021 37.9098 50.1673 37.9364 49.7939 37.8884C49.3765 37.8347 48.9467 37.8139 48.5492 37.6928C48.2858 37.6125 47.8806 37.3918 47.8703 37.2152C47.8466 36.8066 48.0244 36.3866 48.1204 35.9712C48.2083 35.9783 48.2961 35.9854 48.384 35.9925C48.4225 36.1627 48.446 36.3381 48.5037 36.5017C48.5663 36.6794 48.6607 36.8462 48.7413 37.0177C48.8845 36.8871 49.0342 36.7627 49.1683 36.6235C49.2419 36.5472 49.2891 36.446 49.409 36.2633C49.4752 36.582 49.5219 36.8064 49.5844 37.0818Z" fill="#F0F8F3"/>
<path d="M30.5614 66.278C30.7977 66.1214 31.0607 66.0068 31.3409 65.8846C31.6188 66.9125 31.545 67.0816 30.8481 67.2569C30.1047 67.4439 29.5164 67.1319 29.3379 66.4558C29.1126 65.6028 29.4264 64.9729 30.2072 64.8223C30.6428 64.7383 31.1801 64.6083 31.2078 65.214C30.7561 65.2783 30.2696 65.2339 29.9411 65.4381C29.7531 65.555 29.6765 66.1691 29.8191 66.3869C29.9423 66.5752 30.4459 66.5202 30.8102 66.4301C30.7361 66.3934 30.662 66.3567 30.5614 66.278Z" fill="#E7F3EA"/>
<path d="M7.10478 39.1234C6.44068 39.2025 5.82978 39.2704 5.13323 39.3477C5.34278 38.6679 6.23041 38.9466 6.18721 38.1571C6.14256 37.3411 5.36006 37.7248 5.03711 37.2174C5.87642 37.1099 6.67591 37.0075 7.47095 36.9056C7.20268 37.3082 6.83974 37.6312 6.76844 38.0082C6.64026 38.686 7.34856 38.5579 7.84371 38.8248C7.5634 38.9423 7.36069 39.0272 7.10478 39.1234Z" fill="#EEF6F1"/>
<path d="M49.1329 33.6495C49.6921 34.1064 50.2462 34.0667 50.8784 33.8529C50.5663 34.1869 50.2541 34.5208 49.9207 34.8775C50.2031 35.0775 50.4464 35.2498 50.6897 35.422C50.6804 35.4631 50.671 35.5041 50.6617 35.5452C49.8641 35.4931 49.0665 35.4411 48.2819 35.3899C48.1194 34.1726 48.2981 33.8011 49.1329 33.6495ZM48.9676 34.9586C49.11 34.9454 49.2524 34.9323 49.494 34.91C49.3455 34.6183 49.2321 34.3954 49.1186 34.1725C49.0328 34.1842 48.9469 34.1958 48.8611 34.2075C48.8611 34.4522 48.8611 34.6969 48.9676 34.9586Z" fill="#F1F8F4"/>
<path d="M38.6453 68.1678C37.5565 68.4363 37.0042 68.0942 37.1208 67.1208C37.3179 67.3659 37.4219 67.5786 37.5934 67.686C37.7824 67.8044 38.0309 67.853 38.2589 67.874C38.3292 67.8804 38.5033 67.6391 38.4832 67.61C38.3685 67.4436 38.2129 67.3036 38.0637 67.1622C38.0174 67.1183 37.9495 67.0947 37.8889 67.0677C37.4854 66.8878 37.1373 66.5872 37.3943 66.1655C37.5426 65.9221 37.9896 65.7565 38.3114 65.7408C38.7688 65.7184 39.0411 66.1119 39.0487 66.6467C38.6943 66.4478 38.3582 66.2593 38.0221 66.0707C37.9742 66.1334 37.9264 66.1961 37.8785 66.2589C38.1662 66.551 38.4665 66.8322 38.7383 67.1382C39.0383 67.4759 39.1505 67.8279 38.6453 68.1678Z" fill="#E7F2E9"/>
<path d="M12.1785 69.4124C12.5934 69.3224 12.9535 69.2347 13.3136 69.1469C13.3405 69.2403 13.3675 69.3337 13.3944 69.4271C12.8593 69.623 12.3241 69.819 11.7018 70.0468C11.455 69.2111 11.2282 68.4434 10.9736 67.5815C11.5184 67.425 12.0533 67.2714 12.6201 67.1085C12.59 67.7986 11.4044 67.4945 11.7091 68.3754C12.101 68.2948 12.4751 68.2178 12.8492 68.1408C12.8813 68.2154 12.9134 68.2899 12.9455 68.3644C12.7255 68.4707 12.5128 68.5966 12.284 68.679C11.8185 68.8465 11.7575 69.0799 12.1785 69.4124Z" fill="#E6F2E8"/>
<path d="M19.2343 65.4086C20.1408 65.4221 20.6332 65.9803 20.5617 66.845C20.4987 67.6069 19.9418 68.0867 19.2297 67.9634C18.5821 67.8513 18.3409 67.3545 18.2346 66.7961C18.1179 66.1823 18.4739 65.7021 19.2343 65.4086ZM19.15 65.8434C19.0032 65.9612 18.7939 66.0499 18.7211 66.2022C18.4804 66.7062 18.6504 67.1958 19.0805 67.4595C19.2818 67.5829 19.8887 67.4633 19.9638 67.2987C20.115 66.9672 20.107 66.507 20.0028 66.1455C19.9561 65.9833 19.5198 65.9309 19.15 65.8434Z" fill="#E4F1E7"/>
<path d="M14.8745 53.5201C15.3937 53.8446 15.9297 54.1498 16.4249 54.51C16.5524 54.6027 16.5512 54.8684 16.5962 55.0982C16.5833 55.1416 16.5936 55.1313 16.5982 55.1265C16.3824 55.0362 16.1619 54.9507 15.8663 54.8361C15.6769 55.0698 15.4706 55.3433 15.2438 55.599C15.015 55.8571 14.7659 56.0976 14.5243 56.3473C14.1342 55.9424 14.1355 55.937 14.5755 55.3638C14.815 55.0518 15.0517 54.7377 15.2083 54.5317C15.1172 54.1334 15.0512 53.8447 14.9295 53.5356C14.8737 53.5154 14.8763 53.5213 14.8745 53.5201Z" fill="#EFF7F3"/>
<path d="M24.9416 66.8656C24.5718 66.6391 24.2375 66.4461 23.804 66.1958C23.7462 66.6444 23.7145 66.8909 23.6827 67.1374C23.6331 67.1429 23.5836 67.1483 23.534 67.1538C23.4156 66.4384 23.2972 65.7229 23.1816 65.025C24.002 64.6886 24.9794 64.6984 25.0941 65.0938C25.1993 65.4566 25.0268 65.8982 24.8187 66.2898C24.9426 66.4905 25.0665 66.6912 25.1905 66.892C25.1193 66.8943 25.0482 66.8967 24.9416 66.8656ZM24.773 65.6371C24.6863 64.787 24.1158 65.3192 23.7388 65.2169C23.7388 65.4742 23.7388 65.6634 23.7388 65.9462C24.0986 65.8719 24.4112 65.8073 24.773 65.6371Z" fill="#E2F0E6"/>
<path d="M32.4315 65.4771C32.5246 66.2141 33.0715 65.8444 33.4044 65.9879C33.4939 65.6469 33.5728 65.3461 33.6783 64.9437C34.0743 65.7401 33.9435 67.1229 33.4494 67.573C33.4494 67.1715 33.4494 66.8192 33.4494 66.419C33.0892 66.419 32.7875 66.419 32.4673 66.419C32.3804 66.7469 32.29 67.0884 32.1996 67.4298C32.1296 67.4191 32.0597 67.4084 31.9897 67.3977C31.7023 66.5901 32.1121 65.7968 32.0184 64.9931C32.0908 64.979 32.1632 64.9648 32.2356 64.9506C32.3004 65.1079 32.3652 65.2653 32.4315 65.4771Z" fill="#E7F3EA"/>
<path d="M8.25303 45.6106C8.68871 45.5422 9.0752 45.4945 9.45379 45.4478C9.67827 46.0582 9.44812 46.2984 8.93649 46.3708C8.78429 46.3923 8.6384 46.467 8.4865 46.4792C7.94187 46.5229 7.94238 46.8212 8.12599 47.2066C8.20928 47.3814 8.31031 47.548 8.42271 47.7539C7.84346 47.9044 7.61343 47.5854 7.45834 47.1755C7.22154 46.5497 7.47509 46.0377 8.25303 45.6106Z" fill="#EEF7F2"/>
<path d="M34.3458 58.6135C33.458 58.4716 33.2094 58.2015 33.3644 57.5815C33.4855 57.0974 34.0178 56.8188 34.5141 56.9905C34.5867 57.0157 34.6388 57.099 34.7772 57.2256C34.4938 57.3716 34.2614 57.4914 34.0002 57.626C34.3375 58.2675 35.7001 57.7988 35.4377 59.06C35.0825 59.1247 34.6814 59.1978 34.2804 59.2708C34.2663 59.2383 34.2522 59.2057 34.238 59.1731C34.3903 59.0622 34.5426 58.9512 34.7676 58.7874C34.605 58.72 34.5001 58.6765 34.3458 58.6135Z" fill="#F0F8F3"/>
<path d="M39.6432 66.3169C39.7823 66.5471 39.9015 66.8198 40.0503 67.1604C40.2634 67.2051 40.5616 67.2677 40.881 67.3347C40.9876 67.0528 41.0826 66.8012 41.1959 66.5016C41.5172 67.0614 41.3153 68.3702 40.7984 68.9634C40.7984 68.5089 40.7984 68.1444 40.7984 67.7502C40.5109 67.6832 40.2128 67.6137 39.8774 67.5356C39.7316 67.8892 39.5956 68.2192 39.4595 68.5492C39.3617 68.5208 39.2639 68.4924 39.166 68.4641C39.3185 67.7626 39.4709 67.061 39.6432 66.3169Z" fill="#E5F2E8"/>
<path d="M45.946 45.7049C46.0313 45.935 46.106 46.1157 46.2037 46.3524C46.3732 46.2656 46.5259 46.1873 46.5452 46.1775C46.9055 46.6106 47.2184 46.9868 47.5314 47.363C47.5094 47.4162 47.4875 47.4694 47.4655 47.5226C46.6264 47.2135 45.7874 46.9043 44.8838 46.5714C45.0038 46.228 45.0736 45.9082 45.2227 45.6299C45.449 45.2074 45.7165 45.14 45.946 45.7049Z" fill="#F0F7F3"/>
<path d="M45.5561 69.1622C44.9686 69.4932 44.9751 69.5171 45.9102 70.2595C45.475 70.1704 45.1734 70.1575 44.9238 70.0382C44.7866 69.9726 44.6345 69.7057 44.6651 69.5678C44.8068 68.9299 45.0102 68.3055 45.2253 67.559C45.8073 67.758 46.3336 67.9379 46.86 68.1179C46.8395 68.1888 46.8189 68.2598 46.7983 68.3307C46.5099 68.2899 46.2219 68.2224 45.933 68.2188C45.771 68.2168 45.6076 68.3205 45.4448 68.3766C45.5634 68.5033 45.6634 68.6583 45.8051 68.75C46.0152 68.8859 46.2549 68.9769 46.4819 69.087C46.464 69.158 46.4462 69.229 46.4283 69.3C46.1556 69.2549 45.883 69.2098 45.5561 69.1622Z" fill="#E5F2E8"/>
<path d="M38.9739 57.4693C38.4633 56.9877 37.9953 56.4804 37.4946 55.9377C37.3026 55.9513 37.0162 55.9716 36.7299 55.9919C36.7063 55.9084 36.6828 55.8248 36.6592 55.7413C37.2106 55.3923 37.7621 55.0433 38.3135 54.6943C38.3779 54.7139 38.4424 54.7335 38.5068 54.7531C37.8621 55.5445 38.5293 55.992 38.8224 56.5534C38.9584 56.8137 38.9561 57.1447 38.9739 57.4693Z" fill="#F0F8F3"/>
<path d="M42.3506 68.9298C42.5352 68.253 42.7098 67.6313 42.8845 67.0095C42.9559 66.9984 43.0272 66.9872 43.0986 66.9761C43.3693 67.5449 43.6401 68.1137 43.9452 68.7548C44.1085 68.2806 44.2579 67.8464 44.4074 67.4122C44.48 67.4335 44.5525 67.4547 44.6251 67.476C44.4428 68.2048 44.2605 68.9336 44.0405 69.8132C43.7145 69.1344 43.4525 68.5891 43.1161 67.8885C42.9611 68.3894 42.8636 68.7499 42.7324 69.0981C42.6979 69.1896 42.5594 69.2428 42.4686 69.3137C42.426 69.2041 42.3833 69.0945 42.3506 68.9298Z" fill="#E9F4EA"/>
<path d="M6.67598 35.1115C6.82452 34.8871 6.91839 34.6724 7.04401 34.385C7.73822 34.9162 7.42525 35.6238 7.48903 36.2989C6.89912 35.4083 6.10732 36.0273 5.42414 35.9335C5.1828 35.9004 4.9491 35.8129 4.71191 35.7502C4.72439 35.6667 4.73687 35.5833 4.74935 35.4998C5.37333 35.3736 5.99731 35.2474 6.67598 35.1115Z" fill="#EFF7F3"/>
<path d="M11.4317 49.6853C10.7143 49.822 10.05 49.9638 9.38125 50.0809C9.25357 50.1033 9.07781 50.0645 8.98326 49.9851C8.92875 49.9393 8.94424 49.7102 9.01064 49.6414C9.56911 49.0626 10.1456 48.5007 10.7207 47.9377C10.7632 47.896 10.8373 47.8858 11.0689 47.7889C10.9115 48.298 10.7913 48.6869 10.6437 49.1643C10.897 49.2746 11.2284 49.4184 11.5584 49.5652C11.5705 49.5706 11.5802 49.617 11.5717 49.6254C11.5476 49.6494 11.5135 49.6637 11.4317 49.6853Z" fill="#EFF7F2"/>
<path d="M8.48858 42.387C9.02051 42.7383 8.63805 42.9055 8.37193 43.0065C7.86031 43.2005 7.32524 43.3341 6.8001 43.4928C6.8001 43.7675 6.8001 44.0192 6.8001 44.4103C6.55556 44.1477 6.31657 43.9921 6.23107 43.7768C6.08484 43.4086 5.98734 43.009 6.59671 42.8787C7.21746 42.7458 7.82433 42.5496 8.48858 42.387Z" fill="#F0F7F3"/>
<path d="M17.3787 67.6865C17.3663 67.9611 17.3375 68.1786 17.287 68.5612C16.7477 67.6555 16.3291 66.9526 15.8447 66.1394C16.2751 66.39 16.6353 66.5998 16.9761 66.7983C17.1948 66.4294 17.4053 66.0744 17.6157 65.7194C17.6688 65.7513 17.7219 65.7833 17.7751 65.8153C17.6375 66.42 17.5 67.0246 17.3787 67.6865Z" fill="#E1F1E6"/>
<path d="M48.7175 32.2998C49.543 32.3597 50.3115 32.4152 51.1048 32.4725C51.3315 33.1437 50.8419 33.1051 50.4771 33.0805C49.821 33.0363 49.1691 32.9306 48.3682 32.8325C48.4786 32.6296 48.5696 32.4625 48.7175 32.2998Z" fill="#EDF6F1"/>
<path d="M49.1402 41.3394C49.3404 41.4925 49.488 41.6389 49.6356 41.7852C49.4317 41.8434 49.2117 41.9815 49.0269 41.9451C48.426 41.8264 47.8329 41.6595 47.2489 41.474C47.1197 41.433 47.04 41.2398 46.9375 41.1166C47.0996 41.0519 47.2763 40.9095 47.4212 40.9361C47.9822 41.0391 48.5331 41.1958 49.1402 41.3394Z" fill="#EEF6F1"/>
<path d="M32.3682 57.6543C32.4572 57.6247 32.5125 57.599 32.5427 57.6163C32.8939 57.8169 33.5454 59.8321 33.3198 60.1257C33.2558 60.209 32.8389 60.17 32.8298 60.1308C32.6394 59.3181 32.4845 58.4973 32.3682 57.6543Z" fill="#F0F8F3"/>
<path d="M9.15003 44.0916C9.21328 44.1806 9.26855 44.2543 9.25053 44.2995C9.06554 44.7635 7.35606 45.5103 6.87695 45.3316C6.79784 45.3021 6.70603 45.1889 6.7023 45.1105C6.69832 45.0269 6.77249 44.8874 6.84572 44.8605C7.59595 44.5844 8.35294 44.3262 9.15003 44.0916Z" fill="#F0F8F3"/>
<path d="M14.1596 66.6006C14.4147 66.5509 14.6189 66.5199 14.8232 66.4889C13.6993 67.2832 14.864 68.2196 14.435 69.0799C14.2141 68.4575 13.9932 67.835 13.7579 67.172C13.5197 67.172 13.2793 67.172 13.0389 67.172C13.0227 67.1012 13.0065 67.0304 12.9902 66.9596C13.3631 66.8462 13.736 66.7328 14.1596 66.6006Z" fill="#E7F2E9"/>
<path d="M34.8531 67.34C34.8885 66.7437 34.9329 66.2014 34.9765 65.669C34.73 65.5847 34.5203 65.513 34.3105 65.4413C34.3252 65.3516 34.3398 65.2619 34.3545 65.1721C34.9463 65.2301 35.538 65.288 36.1298 65.346C36.179 65.4213 36.2282 65.4966 36.2773 65.572C35.1715 65.6092 35.4284 66.3417 35.3523 66.9206C35.3175 67.1857 35.1908 67.439 35.068 67.8127C34.9558 67.5846 34.9089 67.4893 34.8531 67.34Z" fill="#E7F2E9"/>
<path d="M39.5596 55.7466C39.1803 55.3112 38.8348 54.9099 38.4893 54.5086C38.5332 54.447 38.5771 54.3853 38.621 54.3237C38.7779 54.336 39.0013 54.2867 39.0809 54.3707C39.5922 54.9104 40.0779 55.4747 40.5523 56.0467C40.5954 56.0987 40.5271 56.3361 40.4632 56.3592C40.3452 56.4019 40.1501 56.3989 40.0623 56.3262C39.88 56.1751 39.7468 55.966 39.5596 55.7466Z" fill="#F1F8F4"/>
<path d="M26.6314 67.1495C26.5859 66.4177 26.5859 65.7196 26.5859 65.0215C26.6381 65.0022 26.6902 64.9829 26.7424 64.9636C26.8494 65.2609 27.07 65.5693 27.0414 65.8532C26.9682 66.5801 27.1216 67.0269 28.0396 66.9036C28.0193 66.9837 27.9989 67.0638 27.9786 67.1439C27.5447 67.157 27.1108 67.1701 26.6314 67.1495Z" fill="#CFE8D7"/>
<path d="M9.80518 70.1531C9.58096 69.518 9.37349 68.9284 9.16602 68.3388C9.24315 68.3044 9.32029 68.2699 9.39743 68.2355C9.61031 68.6427 9.88912 69.0309 10.0174 69.4627C10.1445 69.8904 10.2728 70.1902 10.806 70.1352C10.4724 70.2122 10.2166 70.9553 9.80518 70.1531Z" fill="#EBF5EC"/>
<path d="M28.9415 66.1013C28.8868 66.5017 28.8322 66.8423 28.7776 67.1828C28.701 67.1763 28.6244 67.1697 28.5479 67.1631C28.5479 66.401 28.5479 65.6388 28.5479 64.8767C28.6208 64.8674 28.6938 64.8581 28.7668 64.8489C28.825 65.2464 28.8833 65.6439 28.9415 66.1013Z" fill="#E8F4EE"/>
<path d="M41.6151 68.3214C41.7651 67.7711 41.8939 67.2726 42.043 66.6951C42.4221 67.2598 42.1979 68.5506 41.5938 69.199C41.5938 68.8348 41.5938 68.6039 41.6151 68.3214Z" fill="#E4F1E7"/>
<path d="M22.8727 66.7149C22.7437 66.9318 22.6173 67.0924 22.3945 67.3752C22.3945 66.4775 22.3945 65.8057 22.3945 64.9686C22.9631 65.5158 22.8194 66.118 22.8727 66.7149Z" fill="#E2F0E6"/>
<path d="M21.04 65.371C21.2403 65.9685 21.4272 66.5209 21.6675 67.2316C21.3803 67.151 21.072 67.1198 21.064 67.0535C20.9936 66.4648 20.9764 65.8698 20.9453 65.2766C20.9453 65.2762 20.9779 65.2679 20.9864 65.2745C21.0031 65.2875 21.0135 65.3083 21.04 65.371Z" fill="#EBF5EC"/>
<path d="M19.2836 40.0188C19.3235 40.0272 19.3472 40.0508 19.3708 40.0744C19.3393 40.083 19.3078 40.0916 19.2557 40.0827C19.2351 40.0652 19.2672 40.034 19.2836 40.0188Z" fill="#C1A563"/>
<path d="M12.0854 51.8363C12.0125 51.8961 11.9784 51.9255 11.9395 51.9459C11.5268 52.1621 11.0671 52.3285 10.7495 51.8871C10.6286 51.7191 10.7018 51.2904 10.8433 51.0871C11.1563 50.637 11.6843 50.541 12.1503 50.7817C12.7276 51.08 12.394 51.4655 12.0854 51.8363Z" fill="#179446"/>
<path d="M44.537 48.1747C45.1133 47.8311 45.9275 48.0355 46.0367 48.5648C46.0873 48.81 45.9156 49.2317 45.7071 49.3693C45.311 49.6304 44.5748 49.2563 44.4744 48.8028C44.434 48.6207 44.4933 48.417 44.537 48.1747Z" fill="#159344"/>
<path d="M20.885 57.6131C21.3928 58.0957 21.0758 58.5504 20.7942 58.8596C20.5879 59.086 20.1384 59.0957 19.7955 59.2026C19.4601 57.9868 19.9029 57.3801 20.885 57.6131Z" fill="#189447"/>
<path d="M41.5173 54.7176C41.1336 54.4975 40.7544 54.3179 40.4958 54.0316C40.3892 53.9136 40.46 53.4887 40.5994 53.3452C40.7431 53.1971 41.1545 53.0986 41.2965 53.1958C41.6026 53.4054 41.884 53.7248 42.0234 54.0609C42.0791 54.1951 41.7334 54.4922 41.5173 54.7176Z" fill="#179446"/>
<path d="M6.17896 41.4789C5.83969 40.7618 6.02896 40.4207 6.87147 40.2221C7.30562 40.1198 7.67088 40.3069 7.76952 40.7742C7.87411 41.2697 7.57019 41.5275 7.12203 41.5835C6.82273 41.6209 6.50977 41.5514 6.17896 41.4789Z" fill="#199547"/>
<path d="M48.9146 34.9501C48.8613 34.6969 48.8613 34.4522 48.8613 34.2075C48.9472 34.1958 49.033 34.1842 49.1188 34.1725C49.2323 34.3954 49.3458 34.6183 49.4943 34.91C49.2527 34.9323 49.1103 34.9454 48.9146 34.9501Z" fill="#2C9E57"/>
<path d="M19.2053 65.8361C19.52 65.9309 19.9563 65.9833 20.003 66.1455C20.1072 66.5069 20.1151 66.9671 19.964 67.2987C19.8889 67.4633 19.2819 67.5828 19.0806 67.4594C18.6505 67.1958 18.4805 66.7062 18.7213 66.2022C18.7941 66.0498 19.0034 65.9612 19.2053 65.8361Z" fill="#179446"/>
<path d="M24.7479 65.69C24.4107 65.8073 24.0981 65.8719 23.7383 65.9462C23.7383 65.6634 23.7383 65.4743 23.7383 65.217C24.1152 65.3193 24.6858 64.7871 24.7479 65.69Z" fill="#189447"/>
</g>
<defs>
<clipPath id="clip0_363_98">
<rect width="56" height="73" fill="white"/>
</clipPath>
</defs>
</svg>
